G04 ================== begin FILE IDENTIFICATION RECORD ==================*
G04 Layout Name:  olaftry2.brd*
G04 Film Name:    BOTTOM*
G04 File Format:  Gerber RS274X*
G04 File Origin:  Cadence Allegro 17.4-S024*
G04 Origin Date:  Fri Apr 29 02:29:08 2022*
G04 *
G04 Layer:  ETCH/BOTTOM*
G04 Layer:  PIN/BOTTOM*
G04 Layer:  VIA CLASS/BOTTOM*
G04 *
G04 Offset:    (0.00 0.00)*
G04 Mirror:    No*
G04 Mode:      Positive*
G04 Rotation:  0*
G04 FullContactRelief:  No*
G04 UndefLineWidth:     8.00*
G04 ================== end FILE IDENTIFICATION RECORD ====================*
%FSLAX25Y25*MOIN*%
%IR0*IPPOS*OFA0.00000B0.00000*MIA0B0*SFA1.00000B1.00000*%
%ADD18O,.052X.104*%
%ADD13C,.03*%
%ADD17C,.06*%
%ADD19R,.06X.06*%
%ADD16C,.067*%
%ADD21C,.059*%
%ADD20R,.059X.059*%
%ADD11O,.08858X.17717*%
%ADD15O,.09843X.19685*%
%ADD10O,.17717X.08858*%
%ADD14C,.2*%
%ADD12C,.17*%
%ADD22C,.008*%
%ADD23O,.06804X.12004*%
%ADD24C,.08304*%
%ADD25C,.07604*%
G75*
%LPD*%
G75*
G36*
G01X88593Y206000D02*
X95007D01*
G02X95177Y205238I0J-400D01*
G03X92998Y201800I1623J-3438D01*
G03X96800Y197998I3802J0D01*
G03X98377Y198340I1J3802D01*
G01X98503Y198398D01*
X102650Y194250D01*
G03X103500Y193898I850J850D01*
G01X117131D01*
G02X117481Y193306I-1J-400D01*
G03X117198Y192222I2019J-1106D01*
G02X116798Y191826I-400J4D01*
G01X103488D01*
G03X101524Y192926I-1964J-1203D01*
G03Y188322I0J-2302D01*
G03X103488Y189422I0J2303D01*
G01X116759D01*
X117531Y188650D01*
G03X118381Y188298I850J850D01*
G01X120619D01*
G03X121469Y188650I0J1202D01*
G01X122241Y189422D01*
X136044D01*
G02X136393Y188827I0J-400D01*
G03X136098Y187700I2007J-1127D01*
G03X136297Y186764I2301J0D01*
G02X135931Y186202I-365J-162D01*
G01X101998D01*
X96350Y191850D01*
G03X95500Y192202I-850J-850D01*
G01X91764D01*
G03X89800Y193302I-1964J-1203D01*
G03Y188698I0J-2302D01*
G03X91764Y189798I0J2303D01*
G01X95002D01*
X96883Y187917D01*
G02X96689Y187245I-283J-282D01*
G03X94898Y185000I512J-2245D01*
G03X94903Y184842I2302J-6D01*
G01X94910Y184751D01*
X94704Y184545D01*
X94217Y185032D01*
X94278Y185160D01*
G03X94502Y186150I-2078J990D01*
G03X89898I-2302J0D01*
G03X91926Y183864I2302J0D01*
G01X91995Y183856D01*
X93967Y181884D01*
G02X93684Y181202I-283J-282D01*
G01X91464D01*
G03X89500Y182302I-1964J-1203D01*
G03Y177698I0J-2302D01*
G03X91464Y178798I0J2303D01*
G01X92582D01*
G02X92851Y178103I-1J-400D01*
G03X92098Y176400I1549J-1703D01*
G03X94400Y174098I2302J0D01*
G03X96364Y175198I0J2303D01*
G01X141793D01*
X141815Y175023D01*
G03X144100Y172998I2285J277D01*
G03X144537Y173040I-1J2302D01*
G01X144641Y173060D01*
X150493Y167208D01*
G02X150210Y166526I-283J-282D01*
G01X146646D01*
G02X146358Y167203I0J400D01*
G03X147002Y168800I-1658J1597D01*
G03X144700Y171102I-2302J0D01*
G03X142736Y170002I0J-2303D01*
G01X121464D01*
G03X119500Y171102I-1964J-1203D01*
G03X117198Y168800I0J-2302D01*
G03X117842Y167203I2302J0D01*
G02X117554Y166526I-288J-277D01*
G01X113405D01*
G03X112555Y166174I0J-1202D01*
G01X110024Y163643D01*
G03X109672Y162793I850J-850D01*
G01Y161200D01*
G03X110024Y160350I1202J0D01*
G01X111300Y159074D01*
G03X112150Y158722I850J850D01*
G01X115643D01*
G03X116493Y159074I0J1202D01*
G01X116995Y159577D01*
G02X117677Y159321I283J-283D01*
G03X117871Y158538I2297J154D01*
G02X117505Y157976I-365J-162D01*
G01X104724D01*
X86540Y176159D01*
X86560Y176263D01*
G03X86602Y176700I-2260J438D01*
G03X84300Y174398I-2302J0D01*
G03X84737Y174440I-1J2302D01*
G01X84841Y174460D01*
X102417Y156884D01*
G02X102134Y156202I-283J-282D01*
G01X83664D01*
G03X81700Y157302I-1964J-1203D01*
G03Y152698I0J-2302D01*
G03X83664Y153798I0J2303D01*
G01X194436D01*
G03X198364I1964J1203D01*
G01X209102D01*
X216360Y146541D01*
X216340Y146437D01*
G03X216298Y146000I2260J-438D01*
G03X218600Y148302I2302J0D01*
G03X218163Y148260I1J-2302D01*
G01X218059Y148240D01*
X210450Y155850D01*
G03X209600Y156202I-850J-850D01*
G01X198364D01*
G03X194436I-1964J-1203D01*
G01X123185D01*
G02X122902Y156884I0J400D01*
G01X124417Y158398D01*
X216462D01*
X219910Y154950D01*
G03X220760Y154598I850J850D01*
G01X243852D01*
G02X244184Y153977I-1J-400D01*
G03X243798Y152700I1916J-1276D01*
G03X243840Y152263I2302J1D01*
G01X243860Y152159D01*
X243502Y151802D01*
X226064D01*
G03X224100Y152902I-1964J-1203D01*
G03Y148298I0J-2302D01*
G03X226064Y149398I0J2303D01*
G01X243634D01*
G02X243917Y148716I0J-400D01*
G01X237302Y142102D01*
X158281D01*
G03X157460Y141778I0J-1202D01*
G01X119601D01*
G02X119202Y142170I1J400D01*
G03X119160Y142563I-2302J-47D01*
G01X119140Y142667D01*
X121272Y144798D01*
X152536D01*
G03X154500Y143698I1964J1203D01*
G03Y148302I0J2302D01*
G03X152536Y147202I0J-2303D01*
G01X120774D01*
G03X119924Y146850I0J-1202D01*
G01X117441Y144366D01*
X117337Y144386D01*
G03X116900Y144428I-438J-2260D01*
G03X114692Y142779I0J-2303D01*
G03X114024Y142878I-668J-2204D01*
G03Y138274I0J-2302D01*
G03X115017Y138499I0J2302D01*
G03X115781Y138224I765J927D01*
G01X118019D01*
G03X118869Y138576I0J1202D01*
G01X119667Y139374D01*
X156811D01*
G02X157195Y138860I1J-400D01*
G03X157098Y138200I2205J-661D01*
G03X157386Y137085I2302J0D01*
G01X154702Y134402D01*
X154064D01*
G03X152100Y135502I-1964J-1203D01*
G03Y130898I0J-2302D01*
G03X154064Y131998I0J2303D01*
G01X155200D01*
G03X156050Y132350I0J1202D01*
G01X159605Y135906D01*
X159674Y135914D01*
G03X161702Y138200I-274J2286D01*
G03X161503Y139136I-2301J0D01*
G02X161869Y139698I365J162D01*
G01X224122D01*
G02X224171Y138902I0J-399D01*
G01X212800D01*
G03X211950Y138550I0J-1202D01*
G01X211641Y138240D01*
X211537Y138260D01*
G03X211100Y138302I-438J-2260D01*
G03X209136Y137202I0J-2303D01*
G01X178500D01*
G03X177650Y136850I0J-1202D01*
G01X174741Y133940D01*
X174637Y133960D01*
G03X174474Y133986I-444J-2259D01*
G01X174405Y133994D01*
X174250Y134150D01*
G03X173400Y134502I-850J-850D01*
G01X162500D01*
G03X161650Y134150I0J-1202D01*
G01X160850Y133350D01*
G03X160498Y132500I850J-850D01*
G01Y130164D01*
G03X159736Y129402I1202J-1964D01*
G01X106664D01*
G03X104700Y130502I-1964J-1203D01*
G03X102398Y128200I0J-2302D01*
G03X102522Y127456I2302J1D01*
G02X102143Y126926I-379J-130D01*
G01X90889D01*
G03X88925Y128027I-1964J-1201D01*
G03X86623Y125725I0J-2302D01*
G03X87308Y124086I2303J0D01*
G02X87027Y123402I-281J-284D01*
G01X72306D01*
X69527Y126180D01*
G03X67900Y126854I-1627J-1627D01*
G03X65598Y124553I0J-2302D01*
G03X66273Y122926I2301J1D01*
G01X69726Y119473D01*
G03X71353Y118798I1628J1626D01*
G01X95500D01*
G03Y123402I0J2302D01*
G01X90823D01*
G02X90542Y124086I0J400D01*
G03X90889Y124524I-1618J1638D01*
G01X102881D01*
G03X103581Y124298I701J976D01*
G01X105819D01*
G03X106519Y124524I-1J1202D01*
G01X159881D01*
G03X160581Y124298I701J976D01*
G01X162819D01*
G03X163519Y124524I-1J1202D01*
G01X192611D01*
G03X194575Y123423I1964J1201D01*
G03Y128027I0J2302D01*
G03X192611Y126926I0J-2302D01*
G01X164257D01*
G02X163878Y127456I0J400D01*
G03X164002Y128200I-2178J745D01*
G03X162902Y130164I-2303J0D01*
G01Y132002D01*
X162998Y132098D01*
X171498D01*
G02X171898Y131699I0J-400D01*
G03X174200Y129398I2302J1D01*
G03X176502Y131700I0J2302D01*
G03X176460Y132137I-2302J-1D01*
G01X176440Y132241D01*
X178998Y134798D01*
X209136D01*
G03X211100Y133698I1964J1203D01*
G03X213402Y136000I0J2302D01*
G03X213400Y136084I-2302J-13D01*
G02X213800Y136498I400J14D01*
G01X224337D01*
G03X224673Y136073I1961J1205D01*
G01X235073Y125673D01*
G03X236700Y124998I1628J1626D01*
G01X248898D01*
Y119000D01*
G03X249700Y118198I802J0D01*
G01X254802D01*
X257298Y115702D01*
Y106006D01*
G02X256616Y105723I-400J0D01*
G01X254352Y107987D01*
G02X254451Y108625I283J283D01*
G03X256502Y112000I-1751J3375D01*
G03X248898I-3802J0D01*
G03X250699Y108767I3802J0D01*
G03X250698Y108740I1200J-58D01*
G03X251050Y107890I1202J0D01*
G01X252486Y106455D01*
G02X252250Y105775I-283J-283D01*
G03X248898Y102000I450J-3775D01*
G03X249240Y100423I3802J-1D01*
G01X249298Y100297D01*
X248002Y99002D01*
X234702D01*
Y100400D01*
G03X227898I-3402J0D01*
G01Y95200D01*
G03X234702I3402J0D01*
G01Y96598D01*
X248500D01*
G03X249350Y96950I0J1202D01*
G01X250997Y98598D01*
X251123Y98540D01*
G03X252700Y98198I1576J3460D01*
G03X255051Y99012I0J3802D01*
G02X255698Y98698I247J-314D01*
G01Y95298D01*
X250602Y90202D01*
X143264D01*
G03X141300Y91302I-1964J-1203D01*
G03X138998Y89000I0J-2302D01*
G03X139197Y88064I2301J0D01*
G02X138831Y87502I-365J-162D01*
G01X133264D01*
G03X131300Y88602I-1964J-1203D01*
G03X128998Y86300I0J-2302D01*
G03X129662Y84683I2301J0D01*
G02X129377Y84002I-284J-281D01*
G01X123264D01*
G03X121300Y85102I-1964J-1203D01*
G03X118998Y82800I0J-2302D01*
G03X119751Y81097I2302J0D01*
G02X119482Y80402I-270J-295D01*
G01X116898D01*
X112502Y84798D01*
Y92018D01*
G03X114702Y95200I-1201J3182D01*
G01Y100400D01*
G03X107898I-3402J0D01*
G01Y95200D01*
G03X110098Y92018I3401J0D01*
G01Y84300D01*
G03X110450Y83450I1202J0D01*
G01X115550Y78350D01*
G03X116400Y77998I850J850D01*
G01X145327D01*
G03X147400Y76698I2073J1003D01*
G03X149702Y79000I0J2302D01*
G03X148738Y80873I-2302J0D01*
G02X148971Y81598I233J325D01*
G01X203987D01*
G03X204781Y81298I794J901D01*
G01X207019D01*
G03X207813Y81598I0J1201D01*
G01X242252D01*
G02X242556Y80938I0J-400D01*
G03X241648Y78491I2843J-2447D01*
G03X249152I3752J0D01*
G03X248244Y80938I-3751J0D01*
G02X248548Y81598I304J260D01*
G01X262100D01*
G03X262775Y81806I-1J1202D01*
G02X263400Y81475I225J-331D01*
G01Y6700D01*
X237425D01*
G02X237051Y7243I0J400D01*
G03X237302Y8600I-3551J1358D01*
G03X229698I-3802J0D01*
G03X229949Y7243I3802J1D01*
G02X229575Y6700I-374J-143D01*
G01X227425D01*
G02X227051Y7243I0J400D01*
G03X227302Y8600I-3551J1358D01*
G03X219698I-3802J0D01*
G03X219949Y7243I3802J1D01*
G02X219575Y6700I-374J-143D01*
G01X217425D01*
G02X217051Y7243I0J400D01*
G03X217302Y8600I-3551J1358D01*
G03X209698I-3802J0D01*
G03X209949Y7243I3802J1D01*
G02X209575Y6700I-374J-143D01*
G01X207425D01*
G02X207051Y7243I0J400D01*
G03X207302Y8600I-3551J1358D01*
G03X199698I-3802J0D01*
G03X199949Y7243I3802J1D01*
G02X199575Y6700I-374J-143D01*
G01X197425D01*
G02X197051Y7243I0J400D01*
G03X197302Y8600I-3551J1358D01*
G03X189698I-3802J0D01*
G03X189949Y7243I3802J1D01*
G02X189575Y6700I-374J-143D01*
G01X187302D01*
Y11600D01*
G03X186500Y12402I-802J0D01*
G01X180500D01*
G03X179698Y11600I0J-802D01*
G01Y6700D01*
X161202D01*
Y12700D01*
G03X160400Y13502I-802J0D01*
G01X154400D01*
G03X153598Y12700I0J-802D01*
G01Y6700D01*
X150701D01*
G02X150387Y7347I0J400D01*
G03X151202Y9700I-2987J2352D01*
G03X143598I-3802J0D01*
G03X144413Y7347I3802J-1D01*
G02X144099Y6700I-314J-247D01*
G01X140701D01*
G02X140387Y7347I0J400D01*
G03X141202Y9700I-2987J2352D01*
G03X133598I-3802J0D01*
G03X134413Y7347I3802J-1D01*
G02X134099Y6700I-314J-247D01*
G01X130701D01*
G02X130387Y7347I0J400D01*
G03X131202Y9700I-2987J2352D01*
G03X123598I-3802J0D01*
G03X124413Y7347I3802J-1D01*
G02X124099Y6700I-314J-247D01*
G01X120701D01*
G02X120387Y7347I0J400D01*
G03X121202Y9700I-2987J2352D01*
G03X113598I-3802J0D01*
G03X114413Y7347I3802J-1D01*
G02X114099Y6700I-314J-247D01*
G01X90701D01*
G02X90387Y7347I0J400D01*
G03X91202Y9700I-2987J2352D01*
G03X83598I-3802J0D01*
G03X84413Y7347I3802J-1D01*
G02X84099Y6700I-314J-247D01*
G01X4500D01*
Y30292D01*
G02X5239Y30503I400J-1D01*
G03X14908Y33270I4438J2767D01*
G01Y42130D01*
G03X5239Y44897I-5231J0D01*
G02X4500Y45108I-339J212D01*
G01Y102785D01*
G02X5026Y103165I400J0D01*
G03X5750Y103048I725J2185D01*
G03X7714Y104148I0J2303D01*
G01X79252D01*
X85860Y97541D01*
X85840Y97437D01*
G03X85798Y97000I2260J-438D01*
G03X88100Y99302I2302J0D01*
G03X87663Y99260I1J-2302D01*
G01X87559Y99240D01*
X80600Y106200D01*
G03X79750Y106552I-850J-850D01*
G01X7714D01*
G03X5750Y107652I-1964J-1203D01*
G03X5026Y107535I1J-2302D01*
G02X4500Y107915I-126J380D01*
G01Y206000D01*
X75007D01*
G02X75177Y205238I0J-400D01*
G03X72998Y201800I1623J-3438D01*
G03X80602I3802J0D01*
G03X78423Y205238I-3802J0D01*
G02X78593Y206000I170J362D01*
G01X85007D01*
G02X85177Y205238I0J-400D01*
G03X82998Y201800I1623J-3438D01*
G03X90602I3802J0D01*
G03X88423Y205238I-3802J0D01*
G02X88593Y206000I170J362D01*
G37*
G36*
G01X253896D02*
X263400D01*
Y185552D01*
X263256Y185510D01*
G03X261936Y184502I643J-2211D01*
G01X243798D01*
X239750Y188550D01*
G03X238900Y188902I-850J-850D01*
G01X226480D01*
G02X226131Y189497I0J400D01*
G03X226426Y190624I-2007J1127D01*
G03X224124Y192926I-2302J0D01*
G03X222160Y191826I0J-2303D01*
G01X158082D01*
G02X157730Y192414I1J400D01*
G03X158002Y193499I-2030J1086D01*
G02X158402Y193898I400J-1D01*
G01X186436D01*
G03X188400Y192798I1964J1203D01*
G03Y197402I0J2302D01*
G03X186436Y196302I0J-2303D01*
G01X158417D01*
X157669Y197050D01*
G03X156819Y197402I-850J-850D01*
G01X154581D01*
G03X153731Y197050I0J-1202D01*
G01X152983Y196302D01*
X103998D01*
X100202Y200097D01*
X100260Y200223D01*
G03X100602Y201800I-3460J1576D01*
G03X98423Y205238I-3802J0D01*
G02X98593Y206000I170J362D01*
G01X115007D01*
G02X115177Y205238I0J-400D01*
G03X112998Y201800I1623J-3438D01*
G03X120602I3802J0D01*
G03X118423Y205238I-3802J0D01*
G02X118593Y206000I170J362D01*
G01X125007D01*
G02X125177Y205238I0J-400D01*
G03X122998Y201800I1623J-3438D01*
G03X130602I3802J0D01*
G03X128423Y205238I-3802J0D01*
G02X128593Y206000I170J362D01*
G01X135007D01*
G02X135177Y205238I0J-400D01*
G03X132998Y201800I1623J-3438D01*
G03X140602I3802J0D01*
G03X138423Y205238I-3802J0D01*
G02X138593Y206000I170J362D01*
G01X145007D01*
G02X145177Y205238I0J-400D01*
G03X142998Y201800I1623J-3438D01*
G03X150602I3802J0D01*
G03X148423Y205238I-3802J0D01*
G02X148593Y206000I170J362D01*
G01X155007D01*
G02X155177Y205238I0J-400D01*
G03X152998Y201800I1623J-3438D01*
G03X160602I3802J0D01*
G03X158423Y205238I-3802J0D01*
G02X158593Y206000I170J362D01*
G01X162904D01*
G02X163202Y205334I-1J-400D01*
G03X162998Y204800I597J-534D01*
G01Y198800D01*
G03X163800Y197998I802J0D01*
G01X169800D01*
G03X170602Y198800I0J802D01*
G01Y204800D01*
G03X170398Y205334I-801J0D01*
G02X170696Y206000I299J266D01*
G01X178207D01*
G02X178377Y205238I0J-400D01*
G03X176198Y201800I1623J-3438D01*
G03X183802I3802J0D01*
G03X181623Y205238I-3802J0D01*
G02X181793Y206000I170J362D01*
G01X188207D01*
G02X188377Y205238I0J-400D01*
G03X186198Y201800I1623J-3438D01*
G03X193802I3802J0D01*
G03X191623Y205238I-3802J0D01*
G02X191793Y206000I170J362D01*
G01X198207D01*
G02X198377Y205238I0J-400D01*
G03X196198Y201800I1623J-3438D01*
G03X203802I3802J0D01*
G03X201623Y205238I-3802J0D01*
G02X201793Y206000I170J362D01*
G01X208207D01*
G02X208377Y205238I0J-400D01*
G03X206198Y201800I1623J-3438D01*
G03X213802I3802J0D01*
G03X211623Y205238I-3802J0D01*
G02X211793Y206000I170J362D01*
G01X218207D01*
G02X218377Y205238I0J-400D01*
G03X216198Y201800I1623J-3438D01*
G03X223802I3802J0D01*
G03X221623Y205238I-3802J0D01*
G02X221793Y206000I170J362D01*
G01X228207D01*
G02X228377Y205238I0J-400D01*
G03X226198Y201800I1623J-3438D01*
G03X233802I3802J0D01*
G03X231623Y205238I-3802J0D01*
G02X231793Y206000I170J362D01*
G01X238207D01*
G02X238377Y205238I0J-400D01*
G03X236198Y201800I1623J-3438D01*
G03X243802I3802J0D01*
G03X241623Y205238I-3802J0D01*
G02X241793Y206000I170J362D01*
G01X246104D01*
G02X246402Y205334I-1J-400D01*
G03X246198Y204800I597J-534D01*
G01Y198800D01*
G03X247000Y197998I802J0D01*
G01X253000D01*
G03X253802Y198800I0J802D01*
G01Y204800D01*
G03X253598Y205334I-801J0D01*
G02X253896Y206000I299J266D01*
G37*
G36*
G01X199666Y186498D02*
X238402D01*
X242450Y182450D01*
G03X243300Y182098I850J850D01*
G01X261936D01*
G03X263256Y181090I1963J1203D01*
G01X263400Y181048D01*
Y126191D01*
G02X262971Y125792I-400J0D01*
G03X262700Y125802I-276J-3792D01*
G03X262282Y125779I0J-3802D01*
G01X262186Y125768D01*
X259027Y128927D01*
G03X257400Y129602I-1628J-1626D01*
G01X237653D01*
X228239Y139016D01*
G02X228522Y139698I283J282D01*
G01X237800D01*
G03X238650Y140050I0J1202D01*
G01X247412Y148813D01*
X247470Y148825D01*
G03X248069Y149150I-250J1175D01*
G01X249650Y150731D01*
G03X249975Y151330I-850J849D01*
G01X249987Y151388D01*
X252959Y154360D01*
X253063Y154340D01*
G03X253500Y154298I438J2260D01*
G03X251198Y156600I0J2302D01*
G03X251240Y156163I2302J1D01*
G01X251260Y156059D01*
X248808Y153608D01*
G02X248167Y153714I-283J283D01*
G03X246937Y154845I-2067J-1014D01*
G02X246799Y155500I145J373D01*
G01X248659Y157360D01*
X248763Y157340D01*
G03X249200Y157298I438J2260D01*
G03X246898Y159600I0J2302D01*
G03X246940Y159163I2302J1D01*
G01X246960Y159059D01*
X244902Y157002D01*
X225802D01*
G02X225488Y157649I0J400D01*
G03Y162351I-2988J2351D01*
G02X225802Y162998I314J247D01*
G01X226700D01*
G03X227550Y163350I0J1202D01*
G01X230797Y166598D01*
X230923Y166540D01*
G03X232500Y166198I1576J3460D01*
G03X234987Y167125I-1J3802D01*
G02X235611Y166991I261J-303D01*
G03X235850Y166650I1089J509D01*
G01X238350Y164150D01*
G03X240050I850J850D01*
G01X241359Y165460D01*
X241463Y165440D01*
G03X241900Y165398I438J2260D01*
G03X239598Y167700I0J2302D01*
G03X239640Y167263I2302J1D01*
G01X239660Y167159D01*
X239200Y166699D01*
X237902Y167998D01*
Y171740D01*
G03X237550Y172590I-1202J0D01*
G01X235090Y175050D01*
G03X234240Y175402I-850J-850D01*
G01X230760D01*
G03X229910Y175050I0J-1202D01*
G01X227802Y172942D01*
X227198D01*
X225090Y175050D01*
G03X224240Y175402I-850J-850D01*
G01X220760D01*
G03X219910Y175050I0J-1202D01*
G01X217450Y172590D01*
G03X217098Y171740I850J-850D01*
G01Y168758D01*
X216466Y168126D01*
X152974D01*
X146340Y174759D01*
X146360Y174863D01*
G03X146362Y174874I-2264J417D01*
G02X146771Y175199I393J-75D01*
G03X146819Y175198I49J1201D01*
G01X153702D01*
X154100Y174801D01*
G03X153698Y173100I3400J-1702D01*
G03X157500Y176902I3802J0D01*
G03X155923Y176560I-1J-3802D01*
G01X155797Y176502D01*
X155283Y177016D01*
G02X155566Y177698I283J282D01*
G01X163300D01*
G03X164150Y178050I0J1202D01*
G01X165797Y179698D01*
X165923Y179640D01*
G03X167500Y179298I1576J3460D01*
G03X171302Y183100I0J3802D01*
G03X170488Y185451I-3802J0D01*
G02X170802Y186098I314J247D01*
G01X195702D01*
X202060Y179741D01*
X202040Y179637D01*
G03X201998Y179200I2260J-438D01*
G03X204300Y181502I2302J0D01*
G03X203863Y181460I1J-2302D01*
G01X203759Y181440D01*
X199383Y185816D01*
G02X199666Y186498I283J282D01*
G37*
G36*
G01X259702Y90900D02*
Y108698D01*
G02X260349Y109012I400J0D01*
G03X262700Y108198I2351J2988D01*
G03X262971Y108208I-5J3802D01*
G02X263400Y107809I29J-399D01*
G01Y85799D01*
X261602Y84002D01*
X208481D01*
G02X208099Y84520I0J400D01*
G03X208185Y84923I-2199J680D01*
G01X208207Y85098D01*
X253900D01*
G03X254750Y85450I0J1202D01*
G01X259350Y90050D01*
G03X259702Y90900I-850J850D01*
G37*
%LPC*%
G75*
G36*
G01X241648Y49950D02*
Y55850D01*
G02X242450Y56652I802J0D01*
G01X248350D01*
G02X249152Y55850I0J-802D01*
G01Y49950D01*
G02X248350Y49148I-802J0D01*
G01X242450D01*
G02X241648Y49950I0J802D01*
G37*
G36*
G01X117869Y31050D02*
X118117Y30802D01*
X131236D01*
G02X133200Y31902I1964J-1203D01*
G02Y27298I0J-2302D01*
G02X131236Y28398I0J2303D01*
G01X118556D01*
G03X118162Y27925I-1J-400D01*
G02X118202Y27500I-2262J-427D01*
G02X118160Y27063I-2302J1D01*
G01X118140Y26959D01*
X123398Y21702D01*
X132036D01*
G02X134000Y22802I1964J-1203D01*
G02X136302Y20500I0J-2302D01*
G02X136300Y20416I-2302J13D01*
G03X136700Y20002I400J-14D01*
G01X158036D01*
G02X160000Y21102I1964J-1203D01*
G02Y16498I0J-2302D01*
G02X158036Y17598I0J2303D01*
G01X136617D01*
X135969Y16950D01*
G02X135119Y16598I-850J850D01*
G01X132881D01*
G02X132031Y16950I0J1202D01*
G01X131383Y17598D01*
X98464D01*
G02X96500Y16498I-1964J1203D01*
G02Y21102I0J2302D01*
G02X98464Y20002I0J-2303D01*
G01X120734D01*
G03X121017Y20684I0J400D01*
G01X116441Y25260D01*
X116337Y25240D01*
G02X115900Y25198I-438J2260D01*
G02X115463Y25240I1J2302D01*
G01X115359Y25260D01*
X114750Y24650D01*
G02X113900Y24298I-850J850D01*
G01X108564D01*
G02X106600Y23198I-1964J1203D01*
G02Y27802I0J2302D01*
G02X108564Y26702I0J-2303D01*
G01X113402D01*
X113660Y26959D01*
X113640Y27063D01*
G02X113598Y27500I2260J438D01*
G02X113638Y27925I2302J-2D01*
G03X113244Y28398I-393J73D01*
G01X84264D01*
G02X82300Y27298I-1964J1203D01*
G02Y31902I0J2302D01*
G02X84264Y30802I0J-2303D01*
G01X113683D01*
X113931Y31050D01*
G02X114781Y31402I850J-850D01*
G01X117019D01*
G02X117869Y31050I0J-1202D01*
G37*
G36*
G01X91071Y42898D02*
G02X89107Y41798I-1964J1203D01*
G02Y46402I0J2302D01*
G02X91071Y45302I0J-2303D01*
G01X106736D01*
G02X108700Y46402I1964J-1203D01*
G02Y41798I0J-2302D01*
G02X106736Y42898I0J2303D01*
G01X91071D01*
G37*
G36*
G01X90064Y56298D02*
G02X88100Y55198I-1964J1203D01*
G02Y59802I0J2302D01*
G02X90064Y58702I0J-2303D01*
G01X147736D01*
G02X149700Y59802I1964J-1203D01*
G02Y55198I0J-2302D01*
G02X147736Y56298I0J2303D01*
G01X106701D01*
G03X106390Y55647I0J-400D01*
G02X106902Y54200I-1789J-1447D01*
G02X102298I-2302J0D01*
G02X102810Y55647I2301J0D01*
G03X102499Y56298I-311J251D01*
G01X90064D01*
G37*
G36*
G01X138807Y73411D02*
G02X136900Y72398I-1907J1288D01*
G02Y77002I0J2302D01*
G02X138864Y75902I0J-2303D01*
G01X165336D01*
G02X167300Y77002I1964J-1203D01*
G02Y72398I0J-2302D01*
G02X165336Y73498I0J2303D01*
G01X163978D01*
G03X163696Y72815I0J-400D01*
G02X164702Y70400I-2396J-2415D01*
G01Y65200D01*
G02X157898I-3402J0D01*
G01Y70400D01*
G02X158904Y72815I3402J0D01*
G03X158622Y73498I-282J283D01*
G01X153978D01*
G03X153696Y72815I0J-400D01*
G02X154702Y70400I-2396J-2415D01*
G01Y65200D01*
G02X147898I-3402J0D01*
G01Y70400D01*
G02X148904Y72815I3402J0D01*
G03X148622Y73498I-282J283D01*
G01X143978D01*
G03X143696Y72815I0J-400D01*
G02X144702Y70400I-2396J-2415D01*
G01Y65200D01*
G02X137898I-3402J0D01*
G01Y70400D01*
G02X139281Y73138I3402J0D01*
G01X139362Y73198D01*
Y73498D01*
X138866D01*
X138807Y73411D01*
G37*
G36*
G01X110102Y107898D02*
X105264D01*
G02X103300Y106798I-1964J1203D01*
G02Y111402I0J2302D01*
G02X105264Y110302I0J-2303D01*
G01X110600D01*
G02X111450Y109950I0J-1202D01*
G01X114698Y106702D01*
X194602D01*
X195660Y107759D01*
X195640Y107863D01*
G02X195598Y108300I2260J438D01*
G02X197900Y105998I2302J0D01*
G02X197463Y106040I1J2302D01*
G01X197359Y106060D01*
X195950Y104650D01*
G02X195100Y104298I-850J850D01*
G01X114200D01*
G02X113350Y104650I0J1202D01*
G01X110102Y107898D01*
G37*
G36*
G01X121164Y116198D02*
G02X119200Y115098I-1964J1203D01*
G02Y119702I0J2302D01*
G02X121164Y118602I0J-2303D01*
G01X170636D01*
G02X172600Y119702I1964J-1203D01*
G02Y115098I0J-2302D01*
G02X170636Y116198I0J2303D01*
G01X121164D01*
G37*
G36*
G01X167364Y146798D02*
G02X165400Y145698I-1964J1203D01*
G02Y150302I0J2302D01*
G02X167364Y149202I0J-2303D01*
G01X190436D01*
G02X192400Y150302I1964J-1203D01*
G02Y145698I0J-2302D01*
G02X190436Y146798I0J2303D01*
G01X167364D01*
G37*
G36*
G01X38309Y149158D02*
G03X37617I-346J-201D01*
G02X34026Y147090I-3591J2084D01*
G02Y155394I0J4152D01*
G02X37617Y153326I0J-4152D01*
G03X38309I346J201D01*
G02X41900Y155394I3591J-2084D01*
G02Y147090I0J-4152D01*
G02X38309Y149158I0J4152D01*
G37*
G36*
G01X218698Y177000D02*
Y183000D01*
G02X219500Y183802I802J0D01*
G01X225500D01*
G02X226302Y183000I0J-802D01*
G01Y177000D01*
G02X225500Y176198I-802J0D01*
G01X219500D01*
G02X218698Y177000I0J802D01*
G37*
G36*
G01X163698Y170100D02*
Y176100D01*
G02X164500Y176902I802J0D01*
G01X170500D01*
G02X171302Y176100I0J-802D01*
G01Y170100D01*
G02X170500Y169298I-802J0D01*
G01X164500D01*
G02X163698Y170100I0J802D01*
G37*
G54D23*
X211300Y97800D03*
X221300D03*
X181300D03*
X191300D03*
X201300D03*
X151300D03*
X171300D03*
X121300D03*
X131300D03*
X141300D03*
X101300D03*
X231300Y67800D03*
X221300D03*
X211300D03*
X201300D03*
X191300D03*
X181300D03*
X131300D03*
X121300D03*
X111300D03*
X101300D03*
G54D24*
X41900Y141400D03*
G54D25*
X232500Y180000D03*
%LPD*%
G75*
G54D10*
X21489Y19196D03*
G54D11*
X9678Y37700D03*
G54D20*
X245400Y52900D03*
G54D12*
X23400Y122620D03*
Y170022D03*
G54D21*
X245400Y78491D03*
X263116Y52900D03*
Y78491D03*
G54D22*
G01X5750Y105350D02*
X79750D01*
X88100Y97000D01*
G01X82300Y29600D02*
X114181D01*
X114781Y30200D01*
X117019D01*
X117619Y29600D01*
X133200D01*
G01X106600Y25500D02*
X113900D01*
X115900Y27500D01*
G01X96500Y18800D02*
X131881D01*
X132881Y17800D01*
X135119D01*
X136119Y18800D01*
X160000D01*
G01X88100Y57500D02*
X149700D01*
G01X89107Y44100D02*
X108700D01*
G01X161700Y128200D02*
X104700D01*
G01X197900Y108300D02*
X195100Y105500D01*
X114200D01*
X110600Y109100D01*
X103300D01*
G01X88925Y125725D02*
X103356D01*
X103581Y125500D01*
X105819D01*
X106044Y125725D01*
X160356D01*
X160581Y125500D01*
X162819D01*
X163044Y125725D01*
X194575D01*
G01X249200Y159600D02*
X245400Y155800D01*
X220760D01*
X216960Y159600D01*
X123919D01*
X121093Y156774D01*
X104226D01*
X84300Y176700D01*
G01X196400Y155000D02*
X81700D01*
G01X89800Y191000D02*
X95500D01*
X101500Y185000D01*
X146655D01*
X147555Y185900D01*
X154360D01*
X155760Y187300D01*
X196200D01*
X204300Y179200D01*
G01X150000Y180000D02*
X89500D01*
G01X157500Y183100D02*
X152982D01*
X151782Y184300D01*
X148218D01*
X147118Y183200D01*
X99000D01*
X97200Y185000D01*
G01X94400Y176400D02*
X141381D01*
X142981Y178000D01*
X145219D01*
X146819Y176400D01*
X154200D01*
X157500Y173100D01*
G01X167500Y183100D02*
X163300Y178900D01*
X154919D01*
X151119Y182700D01*
X148881D01*
X147781Y181600D01*
X95950D01*
X92200Y185350D01*
Y186150D01*
G01X188400Y195100D02*
X157919D01*
X156819Y196200D01*
X154581D01*
X153481Y195100D01*
X103500D01*
X96800Y201800D01*
G01X101524Y190624D02*
X117257D01*
X118381Y189500D01*
X120619D01*
X121743Y190624D01*
X224124D01*
G01X134000Y20500D02*
X122900D01*
X115900Y27500D01*
G01X136900Y74700D02*
X167300D01*
G01X147400Y79000D02*
X147200Y79200D01*
X116400D01*
X111300Y84300D01*
Y97800D01*
G01X121300Y82800D02*
X204481D01*
X204781Y82500D01*
X207019D01*
X207319Y82800D01*
X262100D01*
X266900Y87600D01*
Y107800D01*
X262700Y112000D01*
G01X205300Y86300D02*
X131300D01*
G01X133000Y110000D02*
X122400D01*
X121900Y110500D01*
G01X119200Y117400D02*
X172600D01*
G01X116900Y142126D02*
X120774Y146000D01*
X154500D01*
G01X114024Y140576D02*
X114631D01*
X115781Y139426D01*
X118019D01*
X119169Y140576D01*
X157957D01*
X158281Y140900D01*
X237800D01*
X246900Y150000D01*
X247219D01*
X248800Y151581D01*
Y151900D01*
X253500Y156600D01*
G01X119974Y159474D02*
X120774D01*
X121574Y160274D01*
Y161074D01*
X120774Y161874D01*
X117593D01*
X115643Y159924D01*
X112150D01*
X110874Y161200D01*
Y162793D01*
X113405Y165324D01*
X217824D01*
X222500Y170000D01*
G01X144700Y168800D02*
X119500D01*
G01X138400Y187700D02*
X153897D01*
X155097Y188900D01*
X196863D01*
X198063Y187700D01*
X238900D01*
X243300Y183300D01*
X263900D01*
G01X114524Y162624D02*
X115374Y163474D01*
X121437D01*
X122287Y162624D01*
X219184D01*
X220760Y164200D01*
X226700D01*
X232500Y170000D01*
G01X119500Y192200D02*
X120800Y193500D01*
X155700D01*
G01X141300Y89000D02*
X251100D01*
X256900Y94800D01*
Y103740D01*
X251900Y108740D01*
Y111200D01*
X252700Y112000D01*
G01X174200Y131700D02*
Y132500D01*
X173400Y133300D01*
X162500D01*
X161700Y132500D01*
Y128200D01*
G01X165400Y148000D02*
X192400D01*
G01X159400Y138200D02*
Y137400D01*
X155200Y133200D01*
X152100D01*
G01X241900Y167700D02*
X239200Y165000D01*
X236700Y167500D01*
Y171740D01*
X234240Y174200D01*
X230760D01*
X228300Y171740D01*
X226700D01*
X224240Y174200D01*
X220760D01*
X218300Y171740D01*
Y168260D01*
X216964Y166924D01*
X152476D01*
X144100Y175300D01*
G01X211100Y136000D02*
X178500D01*
X174200Y131700D01*
G01X196400Y155000D02*
X209600D01*
X218600Y146000D01*
G01X252700Y122000D02*
X258500Y116200D01*
Y90900D01*
X253900Y86300D01*
X205300D01*
G01X205900Y85200D02*
Y85700D01*
X205300Y86300D01*
G01X226300Y137700D02*
X212800D01*
X211100Y136000D01*
G01X224100Y150600D02*
X244000D01*
X246100Y152700D01*
G01X244400Y92500D02*
X244000D01*
G01X231300Y97800D02*
X248500D01*
X252700Y102000D01*
G01X262700D02*
Y92000D01*
X261200Y90500D01*
G54D13*
G01X33300Y37700D02*
X48900D01*
X49000Y37600D01*
G01D02*
X49200Y37400D01*
G01X48850Y37600D02*
X49000D01*
G01X33600Y112800D02*
X77675D01*
X91900Y98575D01*
Y95425D01*
X88975Y92500D01*
X70500D01*
G01X80000Y44700D02*
Y33600D01*
X76100Y29700D01*
G01X63800Y92850D02*
X70150D01*
X70500Y92500D01*
G01X67900Y124553D02*
X71353Y121100D01*
X95500D01*
G01X127150Y23400D02*
X127200D01*
X128900Y25100D01*
G01X113500Y44100D02*
Y43500D01*
G01X159950Y46900D02*
Y39850D01*
G01X186050Y130100D02*
Y129550D01*
X186700Y128900D01*
G01X198600Y172100D02*
X197200D01*
G01X213600Y102500D02*
X211900Y104200D01*
G01X262700Y122000D02*
X257400Y127300D01*
X236700D01*
X226300Y137700D01*
G01X233100Y34600D02*
X233800D01*
X5750Y105350D03*
X48850Y37600D03*
X33600Y112800D03*
X82300Y29600D03*
X76100Y29700D03*
X80000Y44700D03*
X63800Y92850D03*
X67900Y124553D03*
X57000Y139100D03*
X81700Y155000D03*
X106600Y25500D03*
X96500Y18800D03*
X88100Y57500D03*
X89107Y44100D03*
X108700D03*
X104600Y54200D03*
X88100Y97000D03*
X108200Y79400D03*
X104700Y128200D03*
X103300Y109100D03*
X95500Y121100D03*
X88925Y125725D03*
X89800Y191000D03*
X84300Y176700D03*
X101524Y190624D03*
X89500Y180000D03*
X97200Y185000D03*
X94400Y176400D03*
X92200Y186150D03*
X133200Y29600D03*
X127150Y23400D03*
X134000Y20500D03*
X115900Y27500D03*
X113500Y44100D03*
X136900Y74700D03*
X121300Y82800D03*
X131300Y86300D03*
X141300Y89000D03*
X133000Y110000D03*
X121900Y110500D03*
X119200Y117400D03*
X118491Y149908D03*
X116900Y142126D03*
X114024Y140576D03*
X114524Y162624D03*
X119974Y159474D03*
X119500Y168800D03*
Y192200D03*
X138400Y187700D03*
X157300Y28100D03*
X160000Y18800D03*
X149700Y57500D03*
X159950Y46900D03*
X167300Y74700D03*
X147400Y79000D03*
X161650Y110700D03*
X161700Y128200D03*
X172600Y117400D03*
X154500Y146000D03*
X165400Y148000D03*
X159400Y138200D03*
X152100Y133200D03*
X144700Y168800D03*
X144100Y175300D03*
X150000Y180000D03*
X155700Y193500D03*
X186050Y130100D03*
X174200Y131700D03*
X197900Y108300D03*
X194575Y125725D03*
X192400Y148000D03*
X196400Y155000D03*
X198600Y172100D03*
X188400Y195100D03*
X205900Y85200D03*
X226300Y137700D03*
X211100Y136000D03*
X218600Y146000D03*
X224100Y150600D03*
X204300Y179200D03*
X224124Y190624D03*
X233100Y34600D03*
X261200Y90500D03*
X244400Y92500D03*
X253500Y156600D03*
X249200Y159600D03*
X246100Y152700D03*
X241900Y167700D03*
X263900Y183300D03*
G54D14*
X50000Y10000D03*
X60000Y200000D03*
X260000Y30000D03*
Y140000D03*
G54D15*
X33300Y37700D03*
G54D16*
X34026Y141400D03*
Y151242D03*
X41900D03*
Y141400D03*
G54D17*
X76800Y201800D03*
X87400Y9700D03*
X97400D03*
X107400D03*
X86800Y201800D03*
X96800D03*
X106800D03*
X117400Y9700D03*
X127400D03*
X137400D03*
X116800Y201800D03*
X126800D03*
X136800D03*
X147400Y9700D03*
X157500Y183100D03*
Y173100D03*
X167500Y183100D03*
X146800Y201800D03*
X156800D03*
X203500Y8600D03*
X193500D03*
X180000Y201800D03*
X190000D03*
X200000D03*
X233500Y8600D03*
X223500D03*
X213500D03*
X232500Y160000D03*
X222500D03*
X232500Y170000D03*
X222500D03*
X232500Y180000D03*
X210000Y201800D03*
X220000D03*
X230000D03*
X262700Y102000D03*
X252700D03*
X262700Y112000D03*
X252700D03*
X262700Y122000D03*
X240000Y201800D03*
G54D18*
X111300Y67800D03*
X101300D03*
Y97800D03*
X111300D03*
X141300Y67800D03*
X131300D03*
X121300D03*
Y97800D03*
X131300D03*
X141300D03*
X171300Y67800D03*
X161300D03*
X151300D03*
Y97800D03*
X161300D03*
X171300D03*
X201300Y67800D03*
X191300D03*
X181300D03*
Y97800D03*
X191300D03*
X201300D03*
X231300Y67800D03*
X221300D03*
X211300D03*
Y97800D03*
X221300D03*
X231300D03*
G54D19*
X157400Y9700D03*
X167500Y173100D03*
X166800Y201800D03*
X183500Y8600D03*
X222500Y180000D03*
X252700Y122000D03*
X250000Y201800D03*
M02*
