G04 ================== begin FILE IDENTIFICATION RECORD ==================*
G04 Layout Name:  olaftry2.brd*
G04 Film Name:    TOP*
G04 File Format:  Gerber RS274X*
G04 File Origin:  Cadence Allegro 17.4-S024*
G04 Origin Date:  Fri Apr 29 02:29:08 2022*
G04 *
G04 Layer:  ETCH/TOP*
G04 Layer:  PIN/TOP*
G04 Layer:  VIA CLASS/TOP*
G04 *
G04 Offset:    (0.00 0.00)*
G04 Mirror:    No*
G04 Mode:      Positive*
G04 Rotation:  0*
G04 FullContactRelief:  No*
G04 UndefLineWidth:     8.00*
G04 ================== end FILE IDENTIFICATION RECORD ====================*
%FSLAX25Y25*MOIN*%
%IR0*IPPOS*OFA0.00000B0.00000*MIA0B0*SFA1.00000B1.00000*%
%ADD34O,.052X.104*%
%ADD20R,.064X.103*%
%ADD18R,.103X.064*%
%ADD16C,.03*%
%ADD32C,.06*%
%ADD37R,.06X.06*%
%ADD22C,.067*%
%ADD42C,.059*%
%ADD25R,.124X.0695*%
%ADD41R,.059X.059*%
%ADD27R,.07677X.11614*%
%ADD11O,.08858X.17717*%
%ADD19O,.09843X.19685*%
%ADD10O,.17717X.08858*%
%ADD36R,.05X.022*%
%ADD17C,.2*%
%ADD21R,.032X.035*%
%ADD29R,.058X.02*%
%ADD31R,.05X.04016*%
%ADD30R,.02X.058*%
%ADD33R,.022X.058*%
%ADD28R,.04016X.05*%
%ADD15C,.17*%
%ADD24R,.048X.042*%
%ADD43R,.053X.038*%
%ADD13R,.042X.048*%
%ADD14R,.038X.053*%
%ADD40R,.035X.0375*%
%ADD39R,.0375X.035*%
%ADD23R,.035X.0695*%
%ADD12R,.087X.067*%
%ADD38R,.04331X.05709*%
%ADD26R,.02581X.06299*%
%ADD35R,.04724X.05787*%
%ADD44C,.008*%
%ADD45C,.07604*%
G75*
%LPD*%
G75*
G36*
G01X4000Y206600D02*
X112995D01*
G02X113278Y205917I0J-400D01*
G01X111750Y204390D01*
G03X111398Y203540I850J-850D01*
G01Y200060D01*
G03X111750Y199210I1202J0D01*
G01X114210Y196750D01*
G03X115060Y196398I850J850D01*
G01X119657D01*
X124398Y191657D01*
Y173100D01*
G03X124750Y172250I1202J0D01*
G01X125950Y171050D01*
G03X126800Y170698I850J850D01*
G01X127948D01*
Y165329D01*
X126471Y163852D01*
X124678D01*
G03X123828Y163500I0J-1202D01*
G01X121514Y161185D01*
G03X119974Y161776I-1540J-1711D01*
G03X118010Y160676I0J-2303D01*
G01X116738D01*
G02X116410Y161305I0J400D01*
G03X116826Y162624I-1886J1320D01*
G03X114524Y164926I-2302J0D01*
G03X112560Y163826I0J-2303D01*
G01X110887D01*
X110834Y163945D01*
G03X110100Y164426I-735J-321D01*
G01X104300D01*
G03X103498Y163624I0J-802D01*
G01Y161624D01*
G03X103644Y161164I802J1D01*
G02Y160934I-164J-115D01*
G03X103498Y160474I656J-461D01*
G01Y158474D01*
G03X103644Y158014I802J1D01*
G02Y157784I-164J-115D01*
G03X103498Y157324I656J-461D01*
G01Y155324D01*
G03X103643Y154864I802J0D01*
G02Y154635I-163J-115D01*
G03X103498Y154175I657J-460D01*
G01Y152175D01*
G03X103644Y151715I802J1D01*
G02Y151485I-164J-115D01*
G03X103498Y151025I656J-461D01*
G01Y149025D01*
G03X103643Y148565I802J0D01*
G02Y148336I-163J-114D01*
G03X103498Y147876I657J-460D01*
G01Y145876D01*
G03X103644Y145416I802J1D01*
G02Y145186I-164J-115D01*
G03X103498Y144726I656J-461D01*
G01Y142726D01*
G03X103644Y142266I802J1D01*
G02Y142036I-164J-115D01*
G03X103498Y141576I656J-461D01*
G01Y139576D01*
G03X104300Y138774I802J0D01*
G01X110100D01*
G03X110834Y139255I-1J802D01*
G01X110887Y139374D01*
X112060D01*
G03X112391Y138954I1961J1205D01*
G02X112390Y138389I-284J-282D01*
G01X104495Y130494D01*
X104426Y130486D01*
G03X103359Y130071I275J-2286D01*
G02X102726Y130396I-233J325D01*
G01Y131213D01*
X102845Y131265D01*
G03X103326Y132000I-321J735D01*
G01Y137800D01*
G03X102524Y138602I-802J0D01*
G01X87925D01*
G03X87123Y137800I0J-802D01*
G01Y132000D01*
G03X87604Y131265I802J0D01*
G01X87724Y131213D01*
Y127689D01*
G03X86623Y125725I1201J-1964D01*
G03X91227I2302J0D01*
G03X90126Y127689I-2302J0D01*
G01Y131198D01*
X100322D01*
Y110876D01*
G03X100674Y110026I1202J0D01*
G01X101060Y109641D01*
X101040Y109537D01*
G03X100998Y109100I2260J-438D01*
G03X101043Y108647I2303J0D01*
G02X100912Y108418I-196J-40D01*
G03X100098Y107281I387J-1137D01*
G01Y103582D01*
G03X98527Y102371I1201J-3183D01*
G02X97802Y102602I-325J232D01*
G01Y121100D01*
G03X93198I-2302J0D01*
G01Y116902D01*
G02X92634Y116537I-400J0D01*
G03X92304Y116608I-330J-730D01*
G01X84626D01*
G03X84065Y116379I0J-801D01*
G02X83784Y116380I-140J143D01*
G01X82552Y117613D01*
Y119048D01*
X83250D01*
G03X84052Y119850I0J802D01*
G01Y125150D01*
G03X83250Y125952I-802J0D01*
G01X82552D01*
Y130678D01*
X83071Y131198D01*
X83626D01*
G03X84428Y132000I0J802D01*
G01Y137800D01*
G03X83626Y138602I-802J0D01*
G01X78476D01*
G03X77674Y137800I0J-802D01*
G01Y132000D01*
G03X78155Y131265I802J0D01*
G01X78274Y131213D01*
Y128824D01*
X76202Y126752D01*
X76014D01*
G02X75686Y127381I0J400D01*
G03X76102Y128700I-1886J1320D01*
G01Y138774D01*
X76700D01*
G03X77502Y139576I0J802D01*
G01Y141576D01*
G03X77356Y142036I-802J-1D01*
G02Y142266I164J115D01*
G03X77502Y142726I-656J461D01*
G01Y144726D01*
G03X77356Y145186I-802J-1D01*
G02Y145416I164J115D01*
G03X77502Y145876I-656J461D01*
G01Y147876D01*
G03X77357Y148336I-802J0D01*
G02Y148565I163J115D01*
G03X77502Y149025I-657J460D01*
G01Y151025D01*
G03X76700Y151826I-801J0D01*
G01X70900D01*
G03X70166Y151346I0J-801D01*
G01X70113Y151226D01*
X69371D01*
X63998Y156600D01*
G03X63692Y156821I-848J-852D01*
G01X63663Y156836D01*
X63378Y157122D01*
X63485Y157261D01*
G03X63652Y157750I-635J490D01*
G01Y161360D01*
G02X64334Y161643I400J0D01*
G01X70098Y155878D01*
Y155324D01*
G03X70900Y154522I802J0D01*
G01X76700D01*
G03X77502Y155324I0J802D01*
G01Y157324D01*
G03X77356Y157784I-802J-1D01*
G02Y158014I164J115D01*
G03X77502Y158474I-656J461D01*
G01Y160474D01*
G03X77356Y160934I-802J-1D01*
G02Y161164I164J115D01*
G03X77502Y161624I-656J461D01*
G01Y163624D01*
G03X76700Y164426I-802J0D01*
G01X70900D01*
G03X70098Y163624I0J-802D01*
G01Y161624D01*
G03X70244Y161164I802J1D01*
G02Y160934I-164J-115D01*
G03X70098Y160474I656J-461D01*
G01Y160242D01*
G02X69416Y159959I-400J0D01*
G01X66152Y163224D01*
Y166398D01*
X67050D01*
G03X67835Y167038I0J801D01*
G01X67868Y167198D01*
X69152D01*
Y172002D01*
X67868D01*
X67835Y172162D01*
G03X67050Y172802I-785J-161D01*
G01X62850D01*
G03X62048Y172000I0J-802D01*
G01Y167200D01*
G03X62850Y166398I802J0D01*
G01X63748D01*
Y164143D01*
G02X63183Y163779I-400J0D01*
G03X62850Y163852I-334J-729D01*
G01X59050D01*
G03X58265Y163212I0J-801D01*
G01X58232Y163052D01*
X55968D01*
X55935Y163212D01*
G03X55191Y163850I-785J-162D01*
G02X55002Y164050I11J200D01*
G01Y165594D01*
X56300D01*
G03X57102Y166396I0J802D01*
G01Y170412D01*
G03X56502Y171188I-802J0D01*
G01X56352Y171227D01*
Y174152D01*
X51248D01*
Y171227D01*
X51098Y171188D01*
G03X50498Y170412I202J-776D01*
G01Y166396D01*
G03X51300Y165594I802J0D01*
G01X52598D01*
Y163852D01*
X51350D01*
G03X50548Y163050I0J-802D01*
G01Y161602D01*
X49950D01*
G03X49100Y161250I0J-1202D01*
G01X48300Y160450D01*
G03X47948Y159600I850J-850D01*
G01Y158884D01*
G02X47266Y158601I-400J0D01*
G01X47107Y158761D01*
G03X46257Y159112I-849J-851D01*
G01X38900D01*
G03X38050Y158761I-1J-1202D01*
G01X36313Y157024D01*
G03X35962Y156174I851J-849D01*
G01Y155527D01*
G02X35427Y155151I-400J0D01*
G03X34026Y155394I-1400J-3909D01*
G03X31337Y154405I1J-4152D01*
G02X30678Y154710I-259J305D01*
G01Y158770D01*
X35827Y163920D01*
G03X36502Y165547I-1626J1628D01*
G01Y174497D01*
G03X35802Y176150I-2302J0D01*
G01Y185018D01*
G02X36484Y185301I400J0D01*
G01X38634Y183150D01*
G03X39484Y182798I850J850D01*
G01X67448D01*
Y181350D01*
G03X68250Y180548I802J0D01*
G01X72050D01*
G03X72835Y181188I0J801D01*
G01X72868Y181348D01*
X75132D01*
X75165Y181188D01*
G03X75950Y180548I785J161D01*
G01X78274D01*
Y171987D01*
X78155Y171935D01*
G03X77674Y171200I321J-735D01*
G01Y165400D01*
G03X78155Y164665I802J0D01*
G01X78274Y164613D01*
Y157224D01*
G03X78626Y156374I1202J0D01*
G01X79460Y155541D01*
X79440Y155437D01*
G03X79398Y155000I2260J-438D01*
G03X81700Y157302I2302J0D01*
G03X81263Y157260I1J-2302D01*
G01X81159Y157240D01*
X80678Y157722D01*
Y164598D01*
X102524D01*
G03X103326Y165400I0J802D01*
G01Y171200D01*
G03X102845Y171935I-802J0D01*
G01X102726Y171987D01*
Y188660D01*
G03X103826Y190624I-1203J1964D01*
G03X99222I-2302J0D01*
G03X100322Y188660I2303J0D01*
G01Y172002D01*
X98819D01*
X98402Y172420D01*
Y183036D01*
G03X99502Y185000I-1203J1964D01*
G03X94898I-2302J0D01*
G03X95998Y183036I2303J0D01*
G01Y178822D01*
G02X95421Y178463I-400J-1D01*
G03X94400Y178702I-1021J-2063D01*
G03X93890Y178645I-1J-2302D01*
G02X93402Y179035I-88J390D01*
G01Y184186D01*
G03X94502Y186150I-1203J1964D01*
G03X89898I-2302J0D01*
G03X90998Y184186I2303J0D01*
G01Y182469D01*
G02X90436Y182103I-400J-1D01*
G03X89500Y182302I-936J-2102D01*
G03X87198Y180000I0J-2302D01*
G03X88298Y178036I2303J0D01*
G01Y172002D01*
X80678D01*
Y182374D01*
G03X80569Y182872I-1202J-2D01*
G01X80552Y182911D01*
Y186650D01*
G03X79750Y187452I-802J0D01*
G01X75950D01*
G03X75165Y186812I0J-801D01*
G01X75132Y186652D01*
X72868D01*
X72835Y186812D01*
G03X72050Y187452I-785J-161D01*
G01X68250D01*
G03X67448Y186650I0J-802D01*
G01Y185202D01*
X39982D01*
X37268Y187915D01*
G02X37352Y188545I283J283D01*
G01Y193402D01*
X36068D01*
X36035Y193562D01*
G03X35250Y194202I-785J-161D01*
G01X31050D01*
G03X30248Y193400I0J-802D01*
G01Y188600D01*
G03X31009Y187800I801J0D01*
G02X31198Y187600I-11J-200D01*
G01Y175197D01*
G03X31898Y173544I2302J0D01*
G01Y166500D01*
X26749Y161350D01*
G03X26074Y159723I1626J-1628D01*
G01Y137024D01*
G03X26749Y135397I2301J1D01*
G01X39098Y123047D01*
Y110600D01*
G03X39773Y108973I2301J1D01*
G01X52398Y96347D01*
Y74400D01*
G03X53073Y72773I2301J1D01*
G01X63398Y62447D01*
Y60982D01*
G03X63148Y60400I552J-582D01*
G01Y53450D01*
G03X63398Y52868I802J0D01*
G01Y52250D01*
G03X63757Y51017I2302J1D01*
G02X63419Y50402I-338J-215D01*
G01X54298D01*
G02X54015Y51085I0J400D01*
G01X55578Y52648D01*
X58350D01*
G03X59152Y53450I0J802D01*
G01Y60400D01*
G03X58350Y61202I-802J0D01*
G01X55578D01*
X51252Y65527D01*
G03X49625Y66202I-1628J-1626D01*
G01X32652D01*
Y67250D01*
G03X31850Y68052I-802J0D01*
G01X29802D01*
Y70025D01*
X31175Y71398D01*
X36200D01*
G03X37002Y72200I0J802D01*
G01Y75198D01*
X45802D01*
Y100802D01*
X36398D01*
Y93302D01*
X29602D01*
Y100802D01*
X20198D01*
Y81623D01*
G02X19515Y81340I-400J0D01*
G01X16227Y84627D01*
G03X14921Y85279I-1628J-1627D01*
G02X14749Y85462I27J198D01*
G03X13950Y86202I-799J-61D01*
G01X9750D01*
G03X8965Y85562I0J-801D01*
G01X8932Y85402D01*
X7648D01*
Y80598D01*
X8932D01*
X8965Y80438D01*
G03X9750Y79798I785J161D01*
G01X13950D01*
G03X14287Y79873I-2J802D01*
G01X14414Y79931D01*
X16398Y77947D01*
Y74578D01*
G03X17073Y72951I2301J1D01*
G01X17951Y72073D01*
G03X19578Y71398I1628J1626D01*
G01X25198D01*
Y68052D01*
X22952D01*
Y69402D01*
X16848D01*
Y68052D01*
X7950D01*
G03X7148Y67250I0J-802D01*
G01Y60550D01*
G03X7950Y59748I802J0D01*
G01X11098D01*
Y47667D01*
G02X10626Y47273I-400J-1D01*
G03X4448Y42130I-948J-5144D01*
G01Y33270D01*
G03X14908I5230J1D01*
G01Y42130D01*
G03X13502Y45699I-5231J1D01*
G01Y59748D01*
X16848D01*
Y58398D01*
X22952D01*
Y59748D01*
X31850D01*
G03X32652Y60550I0J802D01*
G01Y61598D01*
X48672D01*
X53345Y56925D01*
X50622Y54202D01*
X46078D01*
G03X44451Y53527I1J-2301D01*
G01X43573Y52649D01*
G03X42898Y51022I1626J-1628D01*
G01Y46506D01*
X39773Y43380D01*
G03X39098Y41753I1626J-1628D01*
G01Y27100D01*
G03X39773Y25473I2301J1D01*
G01X44573Y20673D01*
G03X46200Y19998I1628J1626D01*
G01X58347D01*
X70273Y8073D01*
G03X71900Y7398I1628J1626D01*
G01X84374D01*
G03X84936Y6805I3025J2304D01*
G02X84677Y6100I-259J-305D01*
G01X4000D01*
Y94048D01*
X7650D01*
G03X8435Y94688I0J801D01*
G01X8468Y94848D01*
X11352D01*
Y100152D01*
X8468D01*
X8435Y100312D01*
G03X7650Y100952I-785J-161D01*
G01X6952D01*
Y103386D01*
G03X8052Y105350I-1203J1964D01*
G03X5750Y107652I-2302J0D01*
G03X4600Y107344I0J-2301D01*
G02X4000Y107691I-200J346D01*
G01Y206600D01*
G37*
G36*
G01X43702Y40800D02*
X46015Y43113D01*
G02X46698Y42830I283J-283D01*
G01Y40998D01*
X54198D01*
Y34202D01*
X46698D01*
Y26023D01*
G02X46015Y25740I-400J0D01*
G01X43702Y28053D01*
Y40800D01*
G37*
G36*
G01X44849Y155110D02*
X45096D01*
X45705Y154500D01*
G03X46555Y154148I850J850D01*
G01X47852D01*
X47948Y154052D01*
Y152700D01*
G03X48300Y151850I1202J0D01*
G01X49100Y151050D01*
G03X49950Y150698I850J850D01*
G01X50348D01*
Y149250D01*
G03X51150Y148448I802J0D01*
G01X51802D01*
Y147502D01*
X50996D01*
G03X50194Y146700I0J-802D01*
G01Y141700D01*
G03X50996Y140898I802J0D01*
G01X55012D01*
G03X55788Y141498I0J802D01*
G01X55827Y141648D01*
X58752D01*
Y146752D01*
X55827D01*
X55788Y146902D01*
G03X55012Y147502I-776J-202D01*
G01X54206D01*
Y148448D01*
X54950D01*
G03X55735Y149088I0J801D01*
G01X55768Y149248D01*
X58032D01*
X58065Y149088D01*
G03X58850Y148448I785J161D01*
G01X62502D01*
X64924Y146026D01*
G03X65774Y145674I850J850D01*
G01X66454D01*
G02X66737Y144992I0J-400D01*
G01X59919Y138173D01*
G03X59244Y136546I1626J-1628D01*
G01Y135652D01*
X55562D01*
X55529Y135812D01*
G03X54744Y136451I-785J-162D01*
G01X52164D01*
G03X51648Y136263I0J-801D01*
G01X51508Y136145D01*
X46048Y141606D01*
X46043Y141680D01*
G03X41900Y145552I-4143J-280D01*
G03Y137248I0J-4152D01*
G03X45008Y138647I0J4152D01*
G02X45590Y138665I299J-265D01*
G01X51362Y132893D01*
Y129350D01*
G03X52164Y128549I801J1D01*
G01X54744D01*
G03X55529Y129188I0J801D01*
G01X55562Y129348D01*
X56334D01*
Y125972D01*
X53000D01*
G03X52418Y125722I0J-802D01*
G01X42933D01*
X30678Y137977D01*
Y147774D01*
G02X31337Y148079I400J0D01*
G03X34026Y147090I2690J3163D01*
G03X37617Y149158I0J4152D01*
G02X38309I346J-201D01*
G03X41900Y147090I3591J2084D01*
G03X46052Y151242I0J4152D01*
G03X44590Y154405I-4153J0D01*
G02X44849Y155110I259J305D01*
G37*
G36*
G01X69416Y141161D02*
G02X70098Y140878I282J-283D01*
G01Y139576D01*
G03X70900Y138774I802J0D01*
G01X71498D01*
Y129752D01*
X70797D01*
G03X69170Y129077I1J-2301D01*
G01X66273Y126180D01*
G03X65598Y124553I1626J-1628D01*
G03X67900Y122252I2301J0D01*
G03X69527Y122926I0J2301D01*
G01X70266Y123664D01*
G02X70948Y123381I282J-283D01*
G01Y121498D01*
X70685Y121235D01*
G03X70334Y120385I851J-849D01*
G01Y116608D01*
X67696D01*
G03X66895Y115807I0J-801D01*
G01Y107059D01*
X62950Y103115D01*
G03X62609Y102425I850J-849D01*
G01X62586Y102252D01*
X61400D01*
G03X60598Y101450I0J-802D01*
G01Y97250D01*
G03X61238Y96465I801J0D01*
G01X61398Y96432D01*
Y95148D01*
X66202D01*
Y96432D01*
X66362Y96465D01*
G03X67002Y97250I-161J785D01*
G01Y101450D01*
G03X66353Y102237I-802J0D01*
G02X66146Y102912I76J393D01*
G01X66854Y103620D01*
G02X67135Y103621I141J-142D01*
G03X67696Y103392I561J572D01*
G01X75374D01*
G03X76175Y104193I0J801D01*
G01Y115807D01*
G03X75374Y116608I-801J0D01*
G01X72736D01*
Y119048D01*
X75550D01*
G03X76335Y119688I0J801D01*
G01X76368Y119848D01*
X78632D01*
X78665Y119688D01*
G03X79450Y119048I785J161D01*
G01X80148D01*
Y117115D01*
G03X80500Y116265I1202J0D01*
G01X83825Y112941D01*
Y107059D01*
X78150Y101385D01*
G03X77883Y100978I850J-849D01*
G01X77833Y100852D01*
X76600D01*
G03X75798Y100050I0J-802D01*
G01Y95850D01*
G03X76438Y95065I801J0D01*
G01X76598Y95032D01*
Y93748D01*
X81402D01*
Y95032D01*
X81562Y95065D01*
G03X82202Y95850I-161J785D01*
G01Y100050D01*
G03X81721Y100785I-802J0D01*
G02X81598Y101434I160J366D01*
G01X83784Y103620D01*
G02X84065Y103621I141J-142D01*
G03X84626Y103392I561J572D01*
G01X92304D01*
G03X92634Y103463I0J801D01*
G02X93198Y103098I164J-365D01*
G01Y63300D01*
G03X93873Y61673I2301J1D01*
G01X102973Y52573D01*
G03X103398Y52237I1630J1625D01*
G01Y34763D01*
G03X103750Y33913I1202J0D01*
G01X105683Y31981D01*
G02X105375Y31299I-283J-283D01*
G03X105300Y31302I-86J-1199D01*
G01X100542D01*
Y33404D01*
X102190Y35052D01*
G03X102542Y35902I-850J850D01*
G01Y43532D01*
G03X102190Y44382I-1202J0D01*
G01X98922Y47650D01*
G03X98072Y48002I-850J-850D01*
G01X95479D01*
X88785Y54695D01*
G02X88925Y55351I283J282D01*
G03X90402Y57500I-825J2149D01*
G03X89302Y59464I-2303J0D01*
G01Y95036D01*
G03X90402Y97000I-1203J1964D01*
G03X85798I-2302J0D01*
G03X86898Y95036I2303J0D01*
G01Y59464D01*
G03X86483Y59138I1205J-1961D01*
G02X85802Y59423I-281J284D01*
G01Y73948D01*
G03X85450Y74798I-1202J0D01*
G01X71898Y88350D01*
G03X71048Y88702I-850J-850D01*
G01X63450D01*
X58602Y93550D01*
Y98419D01*
G03X58250Y99269I-1202J0D01*
G01X51766Y105752D01*
Y113428D01*
X52165D01*
G03X52966Y114230I0J801D01*
G01Y117730D01*
G03X52165Y118532I-802J0D01*
G01X48965D01*
G03X48164Y117730I0J-801D01*
G01Y114230D01*
G03X48965Y113428I802J0D01*
G01X49364D01*
Y106857D01*
G02X48681Y106574I-400J0D01*
G01X43702Y111553D01*
Y121118D01*
X52418D01*
G03X53000Y120868I582J552D01*
G01X56334D01*
Y118120D01*
X56314Y118079D01*
G03X56234Y117730I721J-349D01*
G01Y114230D01*
G03X57035Y113428I802J0D01*
G01X60235D01*
G03X61036Y114230I0J801D01*
G01Y117730D01*
G03X60956Y118079I-801J0D01*
G01X60936Y118120D01*
Y128549D01*
X62836D01*
G03X63638Y129350I1J802D01*
G01Y131541D01*
G03X63848Y132500I-2092J961D01*
G01Y135593D01*
X69416Y141161D01*
G37*
G36*
G01X57002Y75353D02*
Y90786D01*
G02X57684Y91069I400J0D01*
G01X62102Y86650D01*
G03X62952Y86298I850J850D01*
G01X70550D01*
X70756Y86093D01*
G02X70615Y85752I-142J-141D01*
G01X59500D01*
G03X58698Y84950I0J-802D01*
G01Y78000D01*
G03X59500Y77198I802J0D01*
G01X71900D01*
G03X72702Y78000I0J802D01*
G01Y83182D01*
G02X73384Y83465I400J0D01*
G01X83398Y73450D01*
Y57181D01*
G03X83750Y56331I1202J0D01*
G01X92998Y47084D01*
G02X92715Y46402I-283J-282D01*
G01X89107D01*
G03X87480Y45727I1J-2301D01*
G01X86133Y44380D01*
G03X85458Y42753I1626J-1628D01*
G01Y40134D01*
X85226Y39902D01*
X76102D01*
Y40800D01*
G03X75300Y41602I-802J0D01*
G01X72452D01*
Y46750D01*
G03X72314Y47532I-2301J-3D01*
G01X72302Y47565D01*
Y50402D01*
X69752D01*
X69102Y51053D01*
Y51150D01*
G03X68427Y52777I-2301J-1D01*
G01X68156Y53049D01*
X68201Y53169D01*
G03X68252Y53450I-751J281D01*
G01Y60400D01*
G03X68002Y60982I-802J0D01*
G01Y63400D01*
G03X67327Y65027I-2301J-1D01*
G01X57002Y75353D01*
G37*
G36*
G01X93062Y41798D02*
X96000D01*
X96338Y41460D01*
Y38900D01*
G03X96738Y37603I2303J0D01*
G01Y36000D01*
G03X96771Y35774I802J2D01*
G02X96551Y35296I-384J-113D01*
G03X96192Y35050I488J-1098D01*
G01X95490Y34348D01*
G03X95138Y33498I850J-850D01*
G01Y30080D01*
X93744Y28685D01*
G02X93062Y28968I-282J283D01*
G01Y33000D01*
G03X92260Y33802I-802J0D01*
G01X90060D01*
G03X89258Y33000I0J-802D01*
G01Y27202D01*
X86398D01*
X84540Y29059D01*
X84560Y29163D01*
G03X84602Y29600I-2260J438D01*
G03X82300Y27298I-2302J0D01*
G03X82737Y27340I-1J2302D01*
G01X82841Y27360D01*
X85050Y25150D01*
G03X85900Y24798I850J850D01*
G01X92758D01*
G03X93608Y25150I0J1202D01*
G01X96056Y27599D01*
G02X96738Y27316I282J-283D01*
G01Y27200D01*
G03X97540Y26398I802J0D01*
G01X99740D01*
G03X100542Y27200I0J802D01*
G01Y28898D01*
X104802D01*
X105561Y28140D01*
G02X105474Y27508I-283J-283D01*
G03X104298Y25500I1126J-2008D01*
G03X106600Y23198I2302J0D01*
G03X107037Y23240I-1J2302D01*
G01X107141Y23260D01*
X116198Y14202D01*
Y13307D01*
G03X113598Y9700I1202J-3607D01*
G03X114936Y6805I3801J0D01*
G02X114677Y6100I-259J-305D01*
G01X90123D01*
G02X89864Y6805I0J400D01*
G03X91202Y9700I-2463J2895D01*
G03X90800Y11401I-3802J-1D01*
G01X95959Y16560D01*
X96063Y16540D01*
G03X96500Y16498I438J2260D01*
G03X94198Y18800I0J2302D01*
G03X94240Y18363I2302J1D01*
G01X94260Y18259D01*
X89103Y13102D01*
X88977Y13160D01*
G03X87400Y13502I-1576J-3460D01*
G03X84374Y12002I0J-3802D01*
G01X72853D01*
X60927Y23927D01*
G03X60750Y24087I-1630J-1625D01*
G02X61002Y24798I252J311D01*
G01X72302D01*
Y33598D01*
X75300D01*
G03X76102Y34400I0J802D01*
G01Y35298D01*
X86179D01*
G03X87806Y35973I-1J2301D01*
G01X88576Y36742D01*
G02X89258Y36459I282J-283D01*
G01Y36000D01*
G03X90060Y35198I802J0D01*
G01X92260D01*
G03X93062Y36000I0J802D01*
G01Y41798D01*
G37*
G36*
G01X114702Y95200D02*
Y98932D01*
G02X115384Y99215I400J0D01*
G01X117898Y96700D01*
Y95200D01*
G03X121300Y91798I3402J0D01*
G03X124323Y93640I0J3402D01*
G02X124961Y93740I356J-183D01*
G01X129959Y88742D01*
G02X129916Y88140I-283J-282D01*
G03X128998Y86300I1385J-1840D01*
G03X130098Y84336I2303J0D01*
G01Y73582D01*
G03X127898Y70400I1201J-3182D01*
G01Y65200D01*
G03X134702I3402J0D01*
G01Y70400D01*
G03X132502Y73582I-3401J0D01*
G01Y84336D01*
G03X133602Y86300I-1203J1964D01*
G03X133403Y87236I-2301J0D01*
G02X133769Y87798I365J162D01*
G01X139336D01*
G03X140098Y87036I1964J1202D01*
G01Y73582D01*
G03X138468Y72284I1202J-3182D01*
G01X138409Y72195D01*
X138102D01*
Y72736D01*
G03X139202Y74700I-1203J1964D01*
G03X134598I-2302J0D01*
G03X135698Y72736I2303J0D01*
G01Y62298D01*
X130567Y57167D01*
G03X130217Y56384I850J-850D01*
G01X130207Y56195D01*
X129055D01*
G03X128254Y55394I0J-801D01*
G01Y54802D01*
X110100D01*
G03X108473Y54127I1J-2301D01*
G01X106143Y51798D01*
G02X105802Y51939I-141J141D01*
G01Y52234D01*
X105889Y52294D01*
G03X106902Y54200I-1287J1906D01*
G03X106227Y55827I-2301J-1D01*
G01X100938Y61117D01*
G02X101229Y61799I283J282D01*
G03X101300Y61798I83J3401D01*
G03X104702Y65200I0J3402D01*
G01Y70400D01*
G03X102502Y73582I-3401J0D01*
G01Y89327D01*
X105616Y92442D01*
G02X106298Y92159I282J-283D01*
G01Y90200D01*
G03X106650Y89350I1202J0D01*
G01X110098Y85902D01*
Y73582D01*
G03X107898Y70400I1201J-3182D01*
G01Y65200D01*
G03X114702I3402J0D01*
G01Y70400D01*
G03X112502Y73582I-3401J0D01*
G01Y86400D01*
G03X112150Y87250I-1202J0D01*
G01X108702Y90698D01*
Y92099D01*
G02X109333Y92425I400J0D01*
G03X111300Y91798I1968J2775D01*
G03X114702Y95200I0J3402D01*
G37*
G36*
G01X111053Y50198D02*
X128254D01*
Y49606D01*
G03X128402Y49142I801J0D01*
G01X128500Y49004D01*
X126797Y47302D01*
X124750D01*
G03X123965Y46662I0J-801D01*
G01X123932Y46502D01*
X122648D01*
Y41698D01*
X123932D01*
X123965Y41538D01*
G03X124750Y40898I785J161D01*
G01X125282D01*
Y37011D01*
X125109Y36987D01*
G03X124420Y36194I112J-793D01*
G01Y32048D01*
X124263Y31892D01*
G02X123580Y32175I-283J283D01*
G01Y36194D01*
G03X122779Y36995I-801J0D01*
G01X118055D01*
G03X117254Y36194I0J-801D01*
G01Y35502D01*
X113253D01*
X110280Y38475D01*
Y42425D01*
G03X111002Y44100I-1580J1674D01*
G03X110280Y45775I-2302J1D01*
G01Y49425D01*
X111053Y50198D01*
G37*
G36*
G01X129945Y29605D02*
G03X130322Y29699I0J802D01*
G02X130908Y29384I188J-353D01*
G03X133200Y27298I2292J216D01*
G03X135164Y28398I0J2303D01*
G01X135682D01*
G02X135961Y27712I0J-400D01*
G03X135950Y27702I803J-894D01*
G01X132624Y24375D01*
X132572Y24361D01*
G03X132031Y24050I308J-1162D01*
G01X130450Y22469D01*
G03X130139Y21928I851J-849D01*
G01X130125Y21876D01*
X129218Y20969D01*
X129168Y20955D01*
G03X128650Y20650I331J-1155D01*
G01X126550Y18550D01*
G03X126198Y17700I850J-850D01*
G01Y13307D01*
G03X124849Y12519I1202J-3607D01*
G01X124708Y12391D01*
X116280Y20819D01*
G02X116588Y21501I283J283D01*
G03X116663Y21498I86J1199D01*
G01X117748D01*
Y21000D01*
G03X118550Y20198I802J0D01*
G01X122750D01*
G03X123535Y20838I0J801D01*
G01X123568Y20998D01*
X124852D01*
Y26096D01*
G03X125359Y26479I-1120J2010D01*
G01X128486Y29605D01*
X129945D01*
G37*
G36*
G01X151664Y56298D02*
X156302D01*
X165598Y47002D01*
Y33405D01*
G02X165103Y33017I-400J0D01*
G03X164816Y33052I-287J-1159D01*
G01X152908D01*
X152864Y33191D01*
G03X152100Y33752I-764J-240D01*
G01X147102D01*
Y37954D01*
X152846Y43698D01*
X155550D01*
G03X156335Y44338I0J801D01*
G01X156368Y44498D01*
X157652D01*
Y49302D01*
X156368D01*
X156335Y49462D01*
G03X155550Y50102I-785J-161D01*
G01X151350D01*
G03X150548Y49300I0J-802D01*
G01Y44800D01*
X145050Y39302D01*
G03X144698Y38452I850J-850D01*
G01Y28054D01*
X138868D01*
G02X138589Y28740I0J400D01*
G03X138600Y28750I-803J894D01*
G01X139798Y29948D01*
X142500D01*
G03X143302Y30750I0J802D01*
G01Y32950D01*
G03X142500Y33752I-802J0D01*
G01X137500D01*
G03X136698Y32950I0J-802D01*
G01Y30802D01*
X135164D01*
G03X133200Y31902I-1964J-1203D01*
G03X131450Y31096I0J-2303D01*
G02X130746Y31356I-304J260D01*
G01Y36194D01*
G03X130057Y36987I-801J0D01*
G01X129884Y37011D01*
Y43367D01*
G03X129855Y43733I-2301J2D01*
G01X129839Y43834D01*
X131009Y45004D01*
X134248D01*
Y40000D01*
G03X135050Y39198I802J0D01*
G01X139250D01*
G03X140035Y39838I0J801D01*
G01X140068Y39998D01*
X141352D01*
Y44802D01*
X140867D01*
G02X140584Y45485I0J400D01*
G01X147850Y52750D01*
G03X148202Y53600I-850J850D01*
G01Y55031D01*
G02X148764Y55397I400J1D01*
G03X149700Y55198I936J2102D01*
G03X151664Y56298I0J2303D01*
G37*
G36*
G01X135752Y115998D02*
X138248D01*
Y114550D01*
G03X139050Y113748I802J0D01*
G01X142850D01*
G03X143635Y114388I0J801D01*
G01X143668Y114548D01*
X144449D01*
G02X144732Y113865I0J-400D01*
G01X144700Y113834D01*
G03X144348Y112984I850J-850D01*
G01Y112302D01*
X143450D01*
G03X142665Y111662I0J-801D01*
G01X142632Y111502D01*
X141348D01*
Y106597D01*
X140450Y105700D01*
G03X140098Y104850I850J-850D01*
G01Y103582D01*
G03X138083Y101505I1202J-3182D01*
G02X137422Y101352I-378J130D01*
G01X129225Y109550D01*
G03X128375Y109902I-850J-850D01*
G01X128073D01*
X127976Y109998D01*
Y110929D01*
X130246Y113198D01*
X130716D01*
G03X131566Y113550I0J1202D01*
G01X132014Y113998D01*
X134950D01*
G03X135752Y114800I0J802D01*
G01Y115998D01*
G37*
G36*
G01X118802Y128520D02*
X122012Y131731D01*
G02X122695Y131448I283J-283D01*
G01Y122293D01*
G03X123496Y121492I801J0D01*
G01X131648D01*
Y120402D01*
X130750D01*
G03X129965Y119762I0J-801D01*
G01X129932Y119602D01*
X128648D01*
Y114999D01*
X125925Y112277D01*
G03X125574Y111427I851J-849D01*
G01Y109500D01*
G03X125925Y108650I1202J-1D01*
G01X126725Y107850D01*
G03X127575Y107498I850J850D01*
G01X127877D01*
X130945Y104430D01*
G02X130730Y103753I-283J-283D01*
G03X129486Y103277I570J-3353D01*
G01X129351Y103192D01*
X124794Y107750D01*
G03X123944Y108102I-850J-850D01*
G01X122179D01*
X120402Y109879D01*
Y115436D01*
G03X121502Y117400I-1203J1964D01*
G03X119201Y119702I-2302J0D01*
G02X118802Y120102I1J400D01*
G01Y128520D01*
G37*
G36*
G01X136252Y170698D02*
X140000D01*
X140248Y170450D01*
Y165650D01*
G03X140600Y164800I1202J0D01*
G01X142050Y163350D01*
G03X142900Y162998I850J850D01*
G01X144476D01*
X149136Y158339D01*
G02X148853Y157656I-283J-283D01*
G01X145492D01*
G03X144690Y156854I-1J-801D01*
G01Y155202D01*
X142298D01*
X141750Y155750D01*
G03X140900Y156102I-850J-850D01*
G01X139052D01*
Y157650D01*
G03X138250Y158452I-802J0D01*
G01X134450D01*
G03X133665Y157812I0J-801D01*
G01X133632Y157652D01*
X131368D01*
X131335Y157812D01*
G03X130550Y158452I-785J-161D01*
G01X126750D01*
G03X125948Y157650I0J-802D01*
G01Y155246D01*
X118780Y148078D01*
X110887D01*
X110834Y148197D01*
G03X110757Y148336I-736J-317D01*
G02Y148565I163J115D01*
G03X110902Y149025I-657J460D01*
G01Y151025D01*
G03X110756Y151485I-802J-1D01*
G02Y151715I164J115D01*
G03X110834Y151854I-656J460D01*
G01X110887Y151974D01*
X117494D01*
G03X118344Y152325I1J1202D01*
G01X123524Y157505D01*
G03X123876Y158355I-850J850D01*
G01Y160148D01*
X125176Y161448D01*
X126969D01*
G03X127819Y161800I0J1202D01*
G01X130367Y164348D01*
X132550D01*
G03X133335Y164988I0J801D01*
G01X133368Y165148D01*
X136252D01*
Y170698D01*
G37*
G36*
G01X179802Y116634D02*
G02X180484Y116917I400J0D01*
G01X197898Y99502D01*
Y95200D01*
G03X201300Y91798I3402J0D01*
G03X202274Y91941I-2J3402D01*
G02X202788Y91558I114J-383D01*
G01Y87110D01*
G03X203140Y86260I1202J0D01*
G01X203660Y85741D01*
X203640Y85637D01*
G03X203598Y85200I2260J-438D01*
G03X205900Y87502I2302J0D01*
G03X205463Y87460I1J-2302D01*
G01X205359Y87440D01*
X205192Y87608D01*
Y92017D01*
X205950Y92775D01*
G03X206000Y92829I-856J843D01*
G02X206600I300J-265D01*
G03X206650Y92775I906J789D01*
G01X219598Y79827D01*
Y73345D01*
G03X217898Y70400I1701J-2945D01*
G01Y65200D01*
G03X221300Y61798I3402J0D01*
G03X221836Y61841I-3J3402D01*
G02X222298Y61446I62J-395D01*
G01Y12207D01*
G03X219698Y8600I1202J-3607D01*
G03X220207Y6700I3801J0D01*
G02X219860Y6100I-346J-200D01*
G01X217140D01*
G02X216793Y6700I-1J400D01*
G03X217302Y8600I-3292J1900D01*
G03X213500Y12402I-3802J0D01*
G03X212958Y12363I1J-3802D01*
G02X212502Y12759I-56J396D01*
G01Y62018D01*
G03X214702Y65200I-1201J3182D01*
G01Y70400D01*
G03X207898I-3402J0D01*
G01Y65200D01*
G03X210098Y62018I3401J0D01*
G01Y10800D01*
G03X210161Y10418I1202J2D01*
G03X209698Y8600I3338J-1818D01*
G03X210207Y6700I3801J0D01*
G02X209860Y6100I-346J-200D01*
G01X207140D01*
G02X206793Y6700I-1J400D01*
G03X207302Y8600I-3292J1900D01*
G03X204702Y12207I-3802J0D01*
G01Y70400D01*
G03X197898I-3402J0D01*
G01Y65200D01*
G03X201300Y61798I3402J0D01*
G03X201836Y61841I-3J3402D01*
G02X202298Y61446I62J-395D01*
G01Y12207D01*
G03X199698Y8600I1202J-3607D01*
G03X200207Y6700I3801J0D01*
G02X199860Y6100I-346J-200D01*
G01X197140D01*
G02X196793Y6700I-1J400D01*
G03X197302Y8600I-3292J1900D01*
G03X193500Y12402I-3802J0D01*
G03X192958Y12363I1J-3802D01*
G02X192502Y12759I-56J396D01*
G01Y62018D01*
G03X194702Y65200I-1201J3182D01*
G01Y70400D01*
G03X187898I-3402J0D01*
G01Y65200D01*
G03X190098Y62018I3401J0D01*
G01Y10800D01*
G03X190161Y10418I1202J2D01*
G03X189698Y8600I3338J-1818D01*
G03X190207Y6700I3801J0D01*
G02X189860Y6100I-346J-200D01*
G01X187302D01*
Y11600D01*
G03X186500Y12402I-802J0D01*
G01X184702D01*
Y70400D01*
G03X177898I-3402J0D01*
G01Y65200D01*
G03X181300Y61798I3402J0D01*
G03X181836Y61841I-3J3402D01*
G02X182298Y61446I62J-395D01*
G01Y12402D01*
X180500D01*
G03X179698Y11600I0J-802D01*
G01Y6100D01*
X170399D01*
X167450Y9050D01*
G03X166600Y9402I-850J-850D01*
G01X163598D01*
G03X162748Y9050I0J-1202D01*
G01X161884Y8185D01*
G02X161202Y8468I-282J283D01*
G01Y12700D01*
G03X160400Y13502I-802J0D01*
G01X154400D01*
G03X153598Y12700I0J-802D01*
G01Y6702D01*
X150702D01*
G02X150388Y7349I0J400D01*
G03X151202Y9700I-2988J2351D01*
G03X147400Y13502I-3802J0D01*
G03X146982Y13479I0J-3802D01*
G01X146886Y13468D01*
X142302Y18053D01*
Y22249D01*
G02X142501Y22449I200J0D01*
G03X143302Y23250I0J801D01*
G01Y25650D01*
X145052D01*
X146298Y24404D01*
Y23250D01*
G03X147100Y22448I802J0D01*
G01X152100D01*
G03X152902Y23250I0J802D01*
G01Y25450D01*
G03X152100Y26252I-802J0D01*
G01X147850D01*
X147102Y27000D01*
Y29948D01*
X152100D01*
G03X152864Y30509I0J801D01*
G01X152908Y30648D01*
X164318D01*
X170032Y24935D01*
G02X169749Y24252I-283J-283D01*
G01X168968D01*
X168935Y24412D01*
G03X168150Y25052I-785J-161D01*
G01X164350D01*
G03X163548Y24250I0J-802D01*
G01Y20598D01*
X162952Y20002D01*
X161964D01*
G03X160000Y21102I-1964J-1203D01*
G03Y16498I0J-2302D01*
G03X161964Y17598I0J2303D01*
G01X163450D01*
G03X164300Y17950I0J1202D01*
G01X164498Y18148D01*
X168150D01*
G03X168935Y18788I0J801D01*
G01X168968Y18948D01*
X171232D01*
X171265Y18788D01*
G03X172050Y18148I785J161D01*
G01X175850D01*
G03X176652Y18950I0J802D01*
G01Y24250D01*
G03X175850Y25052I-802J0D01*
G01X173314D01*
X167736Y30630D01*
X167820Y30764D01*
G03X168002Y31400I-1020J636D01*
G01Y47500D01*
G03X167650Y48350I-1202J0D01*
G01X157650Y58350D01*
G03X156800Y58702I-850J-850D01*
G01X151664D01*
G03X151249Y59203I-1963J-1203D01*
G02X151518Y59898I270J295D01*
G01X154600D01*
G03X155450Y60250I0J1202D01*
G01X158167Y62968D01*
G02X158749Y62949I282J-283D01*
G03X161300Y61798I2551J2251D01*
G03X164702Y65200I0J3402D01*
G01Y70400D01*
G03X162502Y73582I-3401J0D01*
G01Y89825D01*
G03X162150Y90675I-1202J0D01*
G01X158702Y94123D01*
Y112250D01*
X159550Y113098D01*
X163270D01*
G03X163478Y113117I-5J1202D01*
G02X163948Y112723I70J-394D01*
G01Y108298D01*
X165232D01*
X165265Y108138D01*
G03X166050Y107498I785J161D01*
G01X168097D01*
X168998Y106597D01*
Y102905D01*
G03X167898Y100400I2302J-2505D01*
G01Y95200D01*
G03X174702I3402J0D01*
G01Y100400D01*
G03X173602Y102905I-3402J0D01*
G01Y107550D01*
G03X172927Y109177I-2301J-1D01*
G01X171052Y111053D01*
Y113100D01*
G03X170784Y113697I-801J-1D01*
G01Y115589D01*
X170957Y115613D01*
G03X171106Y115649I-113J793D01*
G03X171965Y115187I1495J1750D01*
G02X172241Y114697I-110J-385D01*
G03X172198Y114381I1159J-319D01*
G01Y111174D01*
G03X172550Y110324I1202J0D01*
G01X175598Y107276D01*
Y90798D01*
X166450Y81650D01*
G03X166098Y80800I850J-850D01*
G01Y76664D01*
G03X164998Y74700I1203J-1964D01*
G03X169602I2302J0D01*
G03X168502Y76664I-2303J0D01*
G01Y80302D01*
X177650Y89450D01*
G03X178002Y90300I-850J850D01*
G01Y92740D01*
G02X178706Y92999I400J0D01*
G03X181300Y91798I2594J2201D01*
G03X184702Y95200I0J3402D01*
G01Y100400D01*
G03X182502Y103582I-3401J0D01*
G01Y103934D01*
G02X183184Y104217I400J0D01*
G01X187898Y99502D01*
Y95200D01*
G03X194702I3402J0D01*
G01Y100400D01*
G03X191300Y103802I-3402J0D01*
G03X188749Y102651I0J-3402D01*
G02X188167Y102632I-300J264D01*
G01X179802Y110998D01*
Y116634D01*
G37*
G36*
G01X264200Y186000D02*
G02X263815Y185600I-400J0D01*
G03X261598Y183300I85J-2300D01*
G03X262698Y181336I2303J0D01*
G01Y171390D01*
G02X262049Y171077I-400J0D01*
G03X261550Y171252I-500J-627D01*
G01X260102D01*
Y192900D01*
G03X259750Y193750I-1202J0D01*
G01X253802Y199698D01*
Y204800D01*
G03X253000Y205602I-802J0D01*
G01X247000D01*
G03X246198Y204800I0J-802D01*
G01Y198800D01*
G03X247000Y197998I802J0D01*
G01X252102D01*
X257698Y192402D01*
Y171252D01*
X256250D01*
G03X255448Y170450I0J-802D01*
G01Y167914D01*
X251050Y163516D01*
G03X250698Y162666I850J-850D01*
G01Y162068D01*
G02X250136Y161703I-400J0D01*
G03X249200Y161902I-936J-2102D01*
G03X246898Y159600I0J-2302D01*
G03X246940Y159163I2302J1D01*
G01X246960Y159059D01*
X246384Y158483D01*
G02X245702Y158766I-282J283D01*
G01Y166002D01*
X250200Y170500D01*
G03X250552Y171350I-850J850D01*
G01Y171950D01*
X251250Y172648D01*
X252748D01*
G03X253598Y173000I0J1202D01*
G01X254750Y174152D01*
G03X255102Y175002I-850J850D01*
G01Y190800D01*
G03X254750Y191650I-1202J0D01*
G01X253450Y192950D01*
G03X252600Y193302I-850J-850D01*
G01X250198D01*
X243400Y200099D01*
G03X243802Y201800I-3400J1702D01*
G03X240000Y197998I-3802J0D01*
G01X240002D01*
G03X241577Y198340I-1J3802D01*
G01X241703Y198398D01*
X248850Y191250D01*
G03X249700Y190898I850J850D01*
G01X252102D01*
X252698Y190302D01*
Y189556D01*
X247977D01*
G03X247176Y188755I0J-801D01*
G01Y183045D01*
G03X247977Y182244I801J0D01*
G01X249148D01*
Y181152D01*
X248450D01*
G03X247665Y180512I0J-801D01*
G01X247632Y180352D01*
X245368D01*
X245335Y180512D01*
G03X244550Y181152I-785J-161D01*
G01X240750D01*
G03X239948Y180350I0J-802D01*
G01Y178902D01*
X236643D01*
G02X236249Y179368I0J400D01*
G03X236302Y180000I-3749J633D01*
G03X228698I-3802J0D01*
G01Y179998D01*
G03X229040Y178423I3802J1D01*
G01X229098Y178297D01*
X227450Y176650D01*
G03X227098Y175800I850J-850D01*
G01Y149198D01*
X225984Y148083D01*
G02X225302Y148366I-282J283D01*
G01Y148634D01*
X225389Y148693D01*
G03X226402Y150600I-1288J1907D01*
G03X221798I-2302J0D01*
G03X222898Y148636I2303J0D01*
G01Y148179D01*
X221405Y146685D01*
G02X220749Y146825I-282J283D01*
G03X219802Y147964I-2150J-824D01*
G01Y155602D01*
X220799Y156600D01*
G03X222500Y156198I1702J3400D01*
G03X218698Y160000I0J3802D01*
G01Y159998D01*
G03X219040Y158423I3802J1D01*
G01X219098Y158297D01*
X217750Y156950D01*
G03X217398Y156100I850J-850D01*
G01Y147964D01*
G03X216298Y146000I1203J-1964D01*
G03X217775Y143851I2302J0D01*
G02X217915Y143195I-143J-374D01*
G01X216549Y141830D01*
G03X216198Y140983I851J-849D01*
G01Y111752D01*
X212550D01*
G03X211765Y111112I0J-801D01*
G01X211732Y110952D01*
X209468D01*
X209435Y111112D01*
G03X208650Y111752I-785J-161D01*
G01X204850D01*
G03X204048Y110950I0J-802D01*
G01Y109502D01*
X199864D01*
G03X197900Y110602I-1964J-1203D01*
G03X196964Y110403I0J-2301D01*
G02X196402Y110768I-162J365D01*
G01Y111665D01*
X214650Y129913D01*
G03X215002Y130763I-850J850D01*
G01Y169700D01*
G03X214650Y170550I-1202J0D01*
G01X206540Y178659D01*
X206560Y178763D01*
G03X206602Y179200I-2260J438D01*
G03X204300Y176898I-2302J0D01*
G03X204737Y176940I-1J2302D01*
G01X204841Y176960D01*
X212598Y169202D01*
Y138468D01*
G02X212036Y138103I-400J0D01*
G03X211100Y138302I-936J-2102D01*
G03X209193Y137289I0J-2301D01*
G01X209134Y137202D01*
X208827D01*
G02X208502Y137834I1J400D01*
G03X208652Y138300I-652J467D01*
G01Y142050D01*
G03X208636Y142205I-802J-4D01*
G01X208628Y142248D01*
X208652D01*
Y149700D01*
G03X207850Y150502I-802J0D01*
G01X204350D01*
G03X203670Y150124I0J-801D01*
G02X203047Y150052I-340J211D01*
G01X198640Y154459D01*
X198660Y154563D01*
G03X198702Y155000I-2260J438D01*
G03X196400Y152698I-2302J0D01*
G03X196837Y152740I-1J2302D01*
G01X196941Y152760D01*
X202725Y146975D01*
G03X203381Y146639I849J850D01*
G01X203548Y146612D01*
Y145950D01*
G03X203564Y145795I802J4D01*
G01X203572Y145752D01*
X203548D01*
Y138300D01*
G03X204350Y137498I802J0D01*
G01X204732D01*
Y136564D01*
G03X205083Y135717I1202J2D01*
G01X205650Y135150D01*
G03X206500Y134798I850J850D01*
G01X207234D01*
G02X207517Y134116I0J-400D01*
G01X207296Y133895D01*
X203921D01*
G03X203120Y133094I0J-801D01*
G01Y127306D01*
G03X203921Y126505I801J0D01*
G01X206878D01*
G02X207160Y125822I-1J-400D01*
G01X194350Y113013D01*
G03X193998Y112163I850J-850D01*
G01Y110029D01*
G02X193316Y109746I-400J0D01*
G01X183952Y119111D01*
Y137852D01*
X191859Y145760D01*
X191963Y145740D01*
G03X192400Y145698I438J2260D01*
G03X190098Y148000I0J2302D01*
G03X190140Y147563I2302J1D01*
G01X190160Y147459D01*
X182384Y139683D01*
G02X181702Y139966I-282J283D01*
G01Y143450D01*
X187251Y148999D01*
G03X187602Y149846I-851J849D01*
G01Y172102D01*
X197798Y182298D01*
X211700D01*
G03X212550Y182650I0J1202D01*
G01X221163Y191264D01*
G02X221842Y190928I283J-283D01*
G03X221822Y190626I2282J-303D01*
G01Y190624D01*
G03X222922Y188660I2303J0D01*
G01Y183802D01*
X219500D01*
G03X218698Y183000I0J-802D01*
G01Y177000D01*
G03X219500Y176198I802J0D01*
G01X225500D01*
G03X226302Y177000I0J802D01*
G01Y183000D01*
G03X225520Y183801I-801J0D01*
G01X225326Y184001D01*
Y188660D01*
G03X226426Y190624I-1203J1964D01*
G03X224124Y192926I-2302J0D01*
G01X224122D01*
G03X223820Y192906I1J-2302D01*
G02X223484Y193585I-53J396D01*
G01X228297Y198398D01*
X228423Y198340D01*
G03X229998Y197998I1576J3460D01*
G01X230000D01*
G03X226198Y201800I0J3802D01*
G03X226600Y200099I3802J1D01*
G01X211202Y184702D01*
X197300D01*
G03X196450Y184350I0J-1202D01*
G01X186684Y174583D01*
G02X186002Y174866I-282J283D01*
G01Y175102D01*
X198398Y187498D01*
X206900D01*
G03X207750Y187850I0J1202D01*
G01X218297Y198398D01*
X218423Y198340D01*
G03X219998Y197998I1576J3460D01*
G01X220000D01*
G03X216198Y201800I0J3802D01*
G03X216600Y200099I3802J1D01*
G01X206402Y189902D01*
X197900D01*
G03X197050Y189550I0J-1202D01*
G01X185084Y177583D01*
G02X184402Y177866I-282J283D01*
G01Y183202D01*
X196598Y195398D01*
X204800D01*
G03X205650Y195750I0J1202D01*
G01X208297Y198398D01*
X208423Y198340D01*
G03X209998Y197998I1576J3460D01*
G01X210000D01*
G03X206198Y201800I0J3802D01*
G03X206600Y200099I3802J1D01*
G01X204302Y197802D01*
X202170D01*
G02X201963Y198544I0J400D01*
G03X203802Y201800I-1963J3256D01*
G03X196198I-3802J0D01*
G01Y201797D01*
G03X196305Y200903I3802J2D01*
G01X196332Y200794D01*
X191237Y195699D01*
G02X190576Y195851I-283J283D01*
G03X188400Y197402I-2176J-751D01*
G03X186098Y195100I0J-2302D01*
G03X186140Y194663I2302J1D01*
G01X186160Y194559D01*
X181884Y190283D01*
G02X181202Y190566I-282J283D01*
G01Y198193D01*
G03X183802Y201800I-1202J3607D01*
G03X182988Y204151I-3802J0D01*
G02X183302Y204798I314J247D01*
G01X185302D01*
X186600Y203501D01*
G03X186198Y201800I3400J-1702D01*
G03X190000Y205602I3802J0D01*
G01X189998D01*
G03X188423Y205260I1J-3802D01*
G01X188297Y205202D01*
X187582Y205917D01*
G02X187864Y206600I283J283D01*
G01X264200D01*
Y186000D01*
G37*
G36*
G01X230799Y176600D02*
G03X232500Y176198I1702J3400D01*
G03X234257Y176628I1J3802D01*
G03X234800Y176498I544J1072D01*
G01X239948D01*
Y175050D01*
G03X240750Y174248I802J0D01*
G01X244550D01*
G03X245335Y174888I0J801D01*
G01X245368Y175048D01*
X247632D01*
X247665Y174888D01*
G03X248450Y174248I785J161D01*
G01X248486D01*
G02X248769Y173566I0J-400D01*
G01X248500Y173298D01*
G03X248148Y172448I850J-850D01*
G01Y171848D01*
X244700Y168399D01*
G02X244045Y168537I-282J283D01*
G03X241900Y170002I-2145J-838D01*
G03X239598Y167700I0J-2302D01*
G03X240698Y165736I2303J0D01*
G01Y159539D01*
X230184Y149024D01*
G02X229502Y149307I-282J283D01*
G01Y166698D01*
G02X230149Y167012I400J0D01*
G03X232500Y166198I2351J2988D01*
G03Y173802I0J3802D01*
G03X230149Y172988I0J-3802D01*
G02X229502Y173302I-247J314D01*
G01Y175302D01*
X230799Y176600D01*
G37*
G36*
G01X236302Y50148D02*
X241648D01*
X241649Y49949D01*
G03X242450Y49148I801J0D01*
G01X243698D01*
Y6598D01*
X243201Y6100D01*
X237140D01*
G02X236793Y6700I-1J400D01*
G03X237302Y8600I-3292J1900D01*
G03X233500Y12402I-3802J0D01*
G03X231799Y12000I1J-3802D01*
G01X230702Y13098D01*
Y47148D01*
X235502D01*
Y48432D01*
X235662Y48465D01*
G03X236302Y49250I-161J785D01*
G01Y50148D01*
G37*
G36*
G01X261550Y158148D02*
G03X262049Y158323I-1J802D01*
G02X262698Y158010I249J-313D01*
G01Y153898D01*
X261702Y152902D01*
X255263D01*
G03X254413Y152550I0J-1202D01*
G01X252365Y150502D01*
X248600D01*
G03X247750Y150150I0J-1202D01*
G01X244550Y146950D01*
G03X244198Y146100I850J-850D01*
G01Y133100D01*
G03X244550Y132250I1202J0D01*
G01X250317Y126484D01*
G02X250034Y125802I-283J-282D01*
G01X249700D01*
G03X248898Y125000I0J-802D01*
G01Y119000D01*
G03X249700Y118198I802J0D01*
G01X255700D01*
G03X256099Y118305I-1J802D01*
G02X256698Y117958I199J-347D01*
G01Y116800D01*
G03X257050Y115950I1202J0D01*
G01X259298Y113703D01*
X259240Y113577D01*
G03X258898Y112000I3460J-1576D01*
G03X262700Y108198I3802J0D01*
G03X263695Y108331I-2J3802D01*
G02X264200Y107945I105J-386D01*
G01Y6100D01*
X246102D01*
Y49148D01*
X248350D01*
G03X249152Y49950I0J802D01*
G01Y55850D01*
G03X248350Y56652I-802J0D01*
G01X246602D01*
Y74937D01*
G03X249152Y78491I-1202J3554D01*
G03X245400Y82243I-3752J0D01*
G03X243736Y81854I0J-3752D01*
G01X242902Y82689D01*
Y93121D01*
X249274Y99494D01*
G02X249856Y99477I283J-283D01*
G03X252700Y98198I2844J2522D01*
G03Y105802I0J3802D01*
G03X248949Y102620I0J-3802D01*
G01X248938Y102557D01*
X241984Y95602D01*
G02X241302Y95885I-282J283D01*
G01Y150002D01*
X243300Y152001D01*
G02X243955Y151863I282J-283D01*
G03X246100Y150398I2145J838D01*
G03X248402Y152700I0J2302D01*
G03X248360Y153137I-2302J-1D01*
G01X248340Y153241D01*
X250792Y155692D01*
G02X251433Y155586I283J-283D01*
G03X253500Y154298I2067J1015D01*
G03X255698Y155917I0J2302D01*
G01X255713Y155964D01*
X257898Y158148D01*
X261550D01*
G37*
%LPC*%
G75*
G36*
G01X118298Y170764D02*
Y190236D01*
G02X117198Y192200I1203J1964D01*
G02X121802I2302J0D01*
G02X120702Y190236I-2303J0D01*
G01Y170764D01*
G02X121802Y168800I-1203J-1964D01*
G02X117198I-2302J0D01*
G02X118298Y170764I2303J0D01*
G37*
G36*
G01X85598Y198193D02*
G02X82998Y201800I1202J3607D01*
G02X90602I3802J0D01*
G02X88002Y198193I-3802J0D01*
G01Y194498D01*
X89259Y193240D01*
X89363Y193260D01*
G02X89800Y193302I438J-2260D01*
G02X87498Y191000I0J-2302D01*
G02X87540Y191437I2302J-1D01*
G01X87560Y191541D01*
X86184Y192917D01*
G03X85502Y192634I-282J-283D01*
G01Y178664D01*
G02X86602Y176700I-1203J-1964D01*
G02X81998I-2302J0D01*
G02X83098Y178664I2303J0D01*
G01Y193802D01*
X78503Y198398D01*
X78377Y198340D01*
G02X76800Y197998I-1576J3460D01*
G02X80602Y201800I0J3802D01*
G02X80260Y200223I-3802J-1D01*
G01X80202Y200097D01*
X84916Y195383D01*
G03X85598Y195666I282J283D01*
G01Y198193D01*
G37*
G36*
G01X120098Y73582D02*
Y80836D01*
G02X118998Y82800I1203J1964D01*
G02X123602I2302J0D01*
G02X122502Y80836I-2303J0D01*
G01Y73582D01*
G02X124702Y70400I-1201J-3182D01*
G01Y65200D01*
G02X117898I-3402J0D01*
G01Y70400D01*
G02X120098Y73582I3401J0D01*
G37*
G36*
G01X191986Y126898D02*
X190450D01*
G02X189665Y127538I0J801D01*
G01X189632Y127698D01*
X188348D01*
Y132502D01*
X189632D01*
X189665Y132662D01*
G02X190450Y133302I785J-161D01*
G01X194650D01*
G02X195447Y132581I0J-801D01*
G01X195466Y132402D01*
X195954D01*
Y133094D01*
G02X196755Y133895I801J0D01*
G01X201479D01*
G02X202280Y133094I0J-801D01*
G01Y127306D01*
G02X201479Y126505I-801J0D01*
G01X197250D01*
G03X196854Y126049I0J-400D01*
G02X196877Y125725I-2279J-325D01*
G02X192273I-2302J0D01*
G01Y125727D01*
G02X192369Y126384I2302J-1D01*
G03X191986Y126898I-383J114D01*
G37*
G54D45*
X96800Y201800D03*
X222500Y170000D03*
X252700Y112000D03*
%LPD*%
G75*
G54D10*
X21489Y19196D03*
G54D11*
X9678Y37700D03*
G54D20*
X33000Y98650D03*
Y77350D03*
G54D12*
X12300Y63900D03*
X27500D03*
G54D30*
X79476Y134900D03*
Y168300D03*
X101524Y134900D03*
X98374D03*
X95224D03*
X92075D03*
X88925D03*
X85776D03*
X82626D03*
Y168300D03*
X85776D03*
X88925D03*
X92075D03*
X95224D03*
X98374D03*
X101524D03*
G54D21*
X50565Y115980D03*
X54600Y123420D03*
X58635Y115980D03*
G54D40*
X206100Y140175D03*
Y147825D03*
G54D13*
X5350Y83000D03*
X11850D03*
X39650Y191000D03*
X33150D03*
X71450Y169600D03*
X64950D03*
X127150Y23400D03*
X120650D03*
X120350Y44100D03*
X126850D03*
X137150Y42400D03*
X139050Y109100D03*
X132850Y117200D03*
X126350D03*
X137650Y175600D03*
X131150D03*
X159950Y46900D03*
X153450D03*
X143650Y42400D03*
X145550Y109100D03*
X161650Y110700D03*
X168150D03*
X186050Y130100D03*
X192550D03*
G54D31*
X53800Y176396D03*
Y168404D03*
G54D22*
X34026Y141400D03*
Y151242D03*
X41900D03*
Y141400D03*
G54D23*
X74800Y56925D03*
X65700D03*
X56600D03*
G54D14*
X13450Y97500D03*
X5750D03*
X81350Y122500D03*
X73650D03*
X60750Y151900D03*
X53050D03*
X60950Y160400D03*
X53250D03*
X77850Y184000D03*
X70150D03*
X140950Y117200D03*
X128650Y155000D03*
X136350D03*
X123650Y145000D03*
X131350D03*
X138350Y167800D03*
X130650D03*
X166250Y21600D03*
X148650Y117200D03*
X173950Y21600D03*
X229450Y108300D03*
X221750D03*
X206750D03*
X214450D03*
X250350Y177700D03*
X242650D03*
G54D41*
X245400Y52900D03*
G54D32*
X76800Y201800D03*
X87400Y9700D03*
X97400D03*
X107400D03*
X86800Y201800D03*
X96800D03*
X106800D03*
X117400Y9700D03*
X127400D03*
X137400D03*
X116800Y201800D03*
X126800D03*
X136800D03*
X147400Y9700D03*
X157500Y183100D03*
Y173100D03*
X167500Y183100D03*
X146800Y201800D03*
X156800D03*
X203500Y8600D03*
X193500D03*
X180000Y201800D03*
X190000D03*
X200000D03*
X233500Y8600D03*
X223500D03*
X213500D03*
X232500Y160000D03*
X222500D03*
X232500Y170000D03*
X222500D03*
X232500Y180000D03*
X210000Y201800D03*
X220000D03*
X230000D03*
X262700Y102000D03*
X252700D03*
X262700Y112000D03*
X252700D03*
X262700Y122000D03*
X240000Y201800D03*
G54D24*
X63800Y99350D03*
Y92850D03*
X79000Y97950D03*
Y91450D03*
X233100Y44850D03*
Y51350D03*
G54D15*
X23400Y122620D03*
Y170022D03*
G54D33*
X98640Y30100D03*
X91160D03*
Y38900D03*
X94900D03*
X98640D03*
G54D42*
X245400Y78491D03*
X263116Y52900D03*
Y78491D03*
G54D43*
X258900Y160850D03*
Y168550D03*
G54D25*
X65700Y81475D03*
G54D16*
G01X5350Y83000D02*
Y89297D01*
X9403Y93350D01*
X11972D01*
X13450Y94828D01*
Y97500D01*
G01X11850Y83000D02*
X14600D01*
X18700Y78900D01*
Y74578D01*
X19578Y73700D01*
X30222D01*
G01X56600Y56925D02*
X51575Y51900D01*
X46078D01*
X45200Y51022D01*
Y45553D01*
X41400Y41753D01*
Y27100D01*
X46200Y22300D01*
X59300D01*
X71900Y9700D01*
X87400D01*
G01X27500Y63900D02*
Y70978D01*
X30222Y73700D01*
G01X27500Y63900D02*
X49625D01*
X56600Y56925D01*
G01X33000Y98650D02*
Y112200D01*
X33600Y112800D01*
G01X41980Y123420D02*
X41400Y122840D01*
Y110600D01*
X54700Y97300D01*
Y74400D01*
X65700Y63400D01*
Y56925D01*
G01X30222Y73700D02*
X33000Y76478D01*
Y77350D01*
G01X33150Y191000D02*
X33500Y190650D01*
Y175197D01*
X34200Y174497D01*
Y165547D01*
X28376Y159723D01*
Y137024D01*
X41980Y123420D01*
G01D02*
X54600D01*
G01X53800Y176396D02*
X45504D01*
G01X39650Y191000D02*
Y193222D01*
X37172Y195700D01*
X29700D01*
X23400Y189400D01*
Y170022D01*
G01X76100Y29700D02*
X76400Y29400D01*
G01X65700Y56925D02*
Y52250D01*
X66800Y51150D01*
Y50100D01*
X70150Y46750D01*
Y37600D01*
G01D02*
X86179D01*
X87760Y39181D01*
Y42753D01*
X89107Y44100D01*
G01X74800Y56925D02*
Y49900D01*
X80000Y44700D01*
G01X73800Y140576D02*
Y128700D01*
X72550Y127450D01*
X70797D01*
X67900Y124553D01*
G01X58635Y115980D02*
Y129589D01*
X61546Y132500D01*
G01X68600Y143600D02*
X61546Y136546D01*
Y132500D01*
G01X89107Y44100D02*
X96953D01*
X98640Y42413D01*
Y38900D01*
G01X120317Y33200D02*
X112300D01*
X107978Y37522D01*
Y43300D01*
G01D02*
Y50378D01*
X110100Y52500D01*
X131417D01*
G01X95500Y121100D02*
Y63300D01*
X104600Y54200D01*
G01X108200Y79400D02*
X105700Y81900D01*
G01X140000Y24350D02*
Y17100D01*
X147400Y9700D01*
G01X120417Y33300D02*
X120317Y33200D01*
G01X120650Y23400D02*
Y26367D01*
X122389Y28106D01*
X123732D01*
X127583Y31957D01*
Y33300D01*
G01D02*
Y43367D01*
X126850Y44100D01*
G01X120350D02*
X113500D01*
G01X138583Y52500D02*
Y55083D01*
X151300Y67800D01*
G01X138583Y52500D02*
Y51157D01*
X134732Y47306D01*
X130056D01*
X126850Y44100D01*
G01X118491Y149908D02*
X124450Y155867D01*
Y156312D01*
X125374Y157236D01*
Y159527D01*
X125797Y159950D01*
X133172D01*
X138350Y165128D01*
Y167800D01*
G01X149600Y28100D02*
X157300D01*
G01X171300Y97800D02*
Y107550D01*
X168150Y110700D01*
G01X168483Y119300D02*
Y111033D01*
X168150Y110700D01*
G01X192550Y130100D02*
X195850D01*
G01D02*
X199017D01*
X199117Y130200D01*
G01X211800Y106700D02*
Y104300D01*
G01D02*
X213600Y102500D01*
G01X221675Y117800D02*
Y108375D01*
X221750Y108300D01*
G01X233100Y44850D02*
Y34600D01*
X5750Y105350D03*
X48850Y37600D03*
X33600Y112800D03*
X82300Y29600D03*
X76100Y29700D03*
X80000Y44700D03*
X63800Y92850D03*
X67900Y124553D03*
X57000Y139100D03*
X81700Y155000D03*
X106600Y25500D03*
X96500Y18800D03*
X88100Y57500D03*
X89107Y44100D03*
X108700D03*
X104600Y54200D03*
X88100Y97000D03*
X108200Y79400D03*
X104700Y128200D03*
X103300Y109100D03*
X95500Y121100D03*
X88925Y125725D03*
X89800Y191000D03*
X84300Y176700D03*
X101524Y190624D03*
X89500Y180000D03*
X97200Y185000D03*
X94400Y176400D03*
X92200Y186150D03*
X133200Y29600D03*
X127150Y23400D03*
X134000Y20500D03*
X115900Y27500D03*
X113500Y44100D03*
X136900Y74700D03*
X121300Y82800D03*
X131300Y86300D03*
X141300Y89000D03*
X133000Y110000D03*
X121900Y110500D03*
X119200Y117400D03*
X118491Y149908D03*
X116900Y142126D03*
X114024Y140576D03*
X114524Y162624D03*
X119974Y159474D03*
X119500Y168800D03*
Y192200D03*
X138400Y187700D03*
X157300Y28100D03*
X160000Y18800D03*
X149700Y57500D03*
X159950Y46900D03*
X167300Y74700D03*
X147400Y79000D03*
X161650Y110700D03*
X161700Y128200D03*
X172600Y117400D03*
X154500Y146000D03*
X165400Y148000D03*
X159400Y138200D03*
X152100Y133200D03*
X144700Y168800D03*
X144100Y175300D03*
X150000Y180000D03*
X155700Y193500D03*
X186050Y130100D03*
X174200Y131700D03*
X197900Y108300D03*
X194575Y125725D03*
X192400Y148000D03*
X196400Y155000D03*
X198600Y172100D03*
X188400Y195100D03*
X205900Y85200D03*
X226300Y137700D03*
X211100Y136000D03*
X218600Y146000D03*
X224100Y150600D03*
X204300Y179200D03*
X224124Y190624D03*
X233100Y34600D03*
X261200Y90500D03*
X244400Y92500D03*
X253500Y156600D03*
X249200Y159600D03*
X246100Y152700D03*
X241900Y167700D03*
X263900Y183300D03*
G54D34*
X111300Y67800D03*
X101300D03*
Y97800D03*
X111300D03*
X141300Y67800D03*
X131300D03*
X121300D03*
Y97800D03*
X131300D03*
X141300D03*
X171300Y67800D03*
X161300D03*
X151300D03*
Y97800D03*
X161300D03*
X171300D03*
X201300Y67800D03*
X191300D03*
X181300D03*
Y97800D03*
X191300D03*
X201300D03*
X231300Y67800D03*
X221300D03*
X211300D03*
Y97800D03*
X221300D03*
X231300D03*
G54D44*
G01X12300Y63900D02*
Y40322D01*
X9678Y37700D01*
G01X5750Y97500D02*
Y105350D01*
G01X82300Y29600D02*
X85900Y26000D01*
X92758D01*
X96340Y29582D01*
Y33498D01*
X97042Y34200D01*
X99638D01*
X101340Y35902D01*
Y43532D01*
X98072Y46800D01*
X94981D01*
X84600Y57181D01*
Y73948D01*
X71048Y87500D01*
X62952D01*
X57400Y93052D01*
Y98419D01*
X50565Y105254D01*
Y115980D01*
G01X34026Y151242D02*
X37163Y154379D01*
Y156174D01*
X38900Y157911D01*
X46257D01*
X47218Y156950D01*
X48350D01*
X49150Y157750D01*
Y159600D01*
X49950Y160400D01*
X53250D01*
G01X41900Y141400D02*
X44554D01*
X53454Y132500D01*
G01X41900Y151242D02*
X38763Y154379D01*
Y155511D01*
X39563Y156311D01*
X45594D01*
X46555Y155350D01*
X48350D01*
X49150Y154550D01*
Y152700D01*
X49950Y151900D01*
X53050D01*
G01X70150Y184000D02*
X39484D01*
X33150Y190334D01*
Y191000D01*
G01X63800Y99350D02*
Y102265D01*
X71535Y110000D01*
G01X79000Y97950D02*
Y100535D01*
X88465Y110000D01*
G01X79476Y134900D02*
Y128326D01*
X76700Y125550D01*
X75584D01*
X73650Y123616D01*
Y122500D01*
G01X71535Y110000D02*
Y120385D01*
X73650Y122500D01*
G01X60996Y144200D02*
Y143096D01*
X57000Y139100D01*
G01X73800Y143726D02*
X68726D01*
X68600Y143600D01*
G01X53800Y168404D02*
Y160950D01*
X53250Y160400D01*
G01X81700Y155000D02*
X79476Y157224D01*
Y168300D01*
G01X73800Y150025D02*
X68873D01*
X63148Y155750D01*
X63050D01*
X60950Y157850D01*
Y160400D01*
G01X73800Y146876D02*
X65774D01*
X60750Y151900D01*
G01X73800Y156324D02*
X71352D01*
X64950Y162726D01*
Y169600D01*
G01X53004Y144200D02*
Y151854D01*
X53050Y151900D01*
G01X79476Y168300D02*
Y182374D01*
X77850Y184000D01*
G01X84300Y176700D02*
Y194300D01*
X76800Y201800D01*
G01X87400Y9700D02*
X96500Y18800D01*
G01X117400Y9700D02*
Y14700D01*
X106600Y25500D01*
G01X104600Y54200D02*
Y34763D01*
X116663Y22700D01*
X119950D01*
X120650Y23400D01*
G01X98640Y30100D02*
X105300D01*
X107200Y28200D01*
X107719D01*
X109300Y26619D01*
Y26100D01*
X125700Y9700D01*
X127400D01*
G01X91160Y40300D02*
Y38900D01*
G01X88100Y97000D02*
Y57500D01*
G01X108700Y44100D02*
Y44022D01*
X107978Y43300D01*
G01X144700Y168800D02*
Y166737D01*
X153382Y158055D01*
X157406D01*
X159600Y155861D01*
Y148700D01*
X157709Y146809D01*
Y142748D01*
X154868Y139907D01*
X134768D01*
X134411Y139550D01*
X121343D01*
X116469Y134676D01*
X115778D01*
X109000Y127898D01*
Y126418D01*
X106482Y123900D01*
X105900D01*
Y123318D01*
X105899Y123317D01*
Y121993D01*
X105900Y121992D01*
Y112582D01*
X107600Y110882D01*
Y107318D01*
X105100Y104818D01*
Y93625D01*
X101300Y89825D01*
Y67800D01*
G01X166800Y201800D02*
X162600Y206000D01*
X115060D01*
X112600Y203540D01*
Y200060D01*
X115060Y197600D01*
X120155D01*
X125600Y192155D01*
Y173100D01*
X126800Y171900D01*
X140498D01*
X141450Y170948D01*
Y165650D01*
X142900Y164200D01*
X144974D01*
X151377Y157797D01*
Y149852D01*
X150977Y149452D01*
Y142748D01*
X149736Y141507D01*
X134105D01*
X133748Y141150D01*
X120680D01*
X115806Y136276D01*
X115115D01*
X107400Y128561D01*
Y127081D01*
X105819Y125500D01*
X104339D01*
X104300Y125461D01*
Y123981D01*
X104299Y123980D01*
Y121330D01*
X104300Y121329D01*
Y111919D01*
X106000Y110219D01*
Y107981D01*
X104419Y106400D01*
X102181D01*
X101300Y107281D01*
Y97800D01*
G01X146800Y201800D02*
Y180945D01*
X147300Y180445D01*
Y178881D01*
X148881Y177300D01*
X149986D01*
X150600Y176686D01*
Y169300D01*
X152800Y167100D01*
X155150D01*
X167000Y155250D01*
Y150219D01*
X168100Y149119D01*
Y146881D01*
X166519Y145300D01*
X166274D01*
X162100Y141126D01*
Y137081D01*
X160519Y135500D01*
X158281D01*
X155474Y138307D01*
X135431D01*
X135074Y137950D01*
X122006D01*
X117132Y133076D01*
X116441D01*
X110600Y127235D01*
Y125755D01*
X107500Y122655D01*
Y113245D01*
X109200Y111545D01*
Y106655D01*
X107500Y104955D01*
Y90200D01*
X111300Y86400D01*
Y67800D01*
G01X116900Y142126D02*
Y139633D01*
X115143Y137876D01*
X113576D01*
X104700Y129000D01*
Y128200D01*
G01X101524Y134900D02*
Y110876D01*
X103300Y109100D01*
G01X88925Y134900D02*
Y125725D01*
G01X81350Y122500D02*
Y131176D01*
X82626Y132452D01*
Y134900D01*
G01X81350Y122500D02*
Y117115D01*
X88465Y110000D01*
G01X107200Y146876D02*
X119278D01*
X127402Y155000D01*
X128650D01*
G01X107200Y143726D02*
X114681D01*
X115781Y144826D01*
X118019D01*
X119119Y143726D01*
X122376D01*
X123650Y145000D01*
G01X107200Y140576D02*
X114024D01*
G01X107200Y159474D02*
X119974D01*
G01X130650Y167800D02*
Y166331D01*
X126969Y162650D01*
X124678D01*
X122674Y160646D01*
Y158355D01*
X117494Y153175D01*
X107200D01*
G01X101524Y168300D02*
Y190624D01*
G01X107200Y162624D02*
X114524D01*
G01X89500Y180000D02*
Y168875D01*
X88925Y168300D01*
G01X97200Y185000D02*
Y171922D01*
X98374Y170748D01*
Y168300D01*
G01X95224D02*
Y175576D01*
X94400Y176400D01*
G01X92075Y168300D02*
Y174906D01*
X91700Y175281D01*
Y177519D01*
X92075Y177894D01*
Y178756D01*
X92200Y178881D01*
Y186150D01*
G01X86800Y201800D02*
Y194000D01*
X89800Y191000D01*
G01X244900Y52400D02*
Y6100D01*
X242200Y3400D01*
X171400D01*
X166600Y8200D01*
X163598D01*
X160898Y5500D01*
X141600D01*
X137400Y9700D01*
G01X127400D02*
Y17700D01*
X129500Y19800D01*
X129748D01*
X131300Y21352D01*
Y21619D01*
X132881Y23200D01*
X133148D01*
X136800Y26852D01*
X145550D01*
X145900Y26502D01*
G01X133200Y29600D02*
X137750D01*
X140000Y31850D01*
G01Y24350D02*
X137850D01*
X134000Y20500D01*
G01X115900Y27500D02*
Y28783D01*
X120317Y33200D01*
G01X136900Y74700D02*
Y61800D01*
X131417Y56317D01*
Y52500D01*
G01X121300Y67800D02*
Y82800D01*
G01X131300Y67800D02*
Y86300D01*
G01X161300Y67800D02*
X154600Y61100D01*
X149481D01*
X147000Y58619D01*
Y53600D01*
X137150Y43750D01*
Y42400D01*
G01X151300Y97800D02*
X144900Y91400D01*
X142719D01*
X142419Y91700D01*
X140181D01*
X139881Y91400D01*
X139600D01*
X136700Y94300D01*
Y100375D01*
X128375Y108700D01*
X127575D01*
X126775Y109500D01*
Y111427D01*
X129748Y114400D01*
X130716D01*
X132850Y116534D01*
Y117200D01*
G01X119200Y117400D02*
Y109381D01*
X121681Y106900D01*
X123944D01*
X131300Y99544D01*
Y97800D01*
G01X121300D02*
X118498D01*
X116000Y100298D01*
Y114518D01*
X114900Y115618D01*
Y119182D01*
X116000Y120282D01*
Y129681D01*
X122669Y136350D01*
X135737D01*
X136094Y136707D01*
X154811D01*
X157618Y133900D01*
X161182D01*
X163700Y136418D01*
Y140463D01*
X166937Y143700D01*
X167182D01*
X169700Y146218D01*
Y146463D01*
X170900Y147663D01*
Y147926D01*
X171700Y148726D01*
Y199440D01*
X178260Y206000D01*
X185800D01*
X190000Y201800D01*
G01X152100Y133200D02*
X150193Y135107D01*
X139928D01*
X138021Y133200D01*
X133579D01*
X132029Y134750D01*
X131604D01*
X131603Y134749D01*
X126301D01*
X126300Y134750D01*
X123332D01*
X117600Y129018D01*
Y119619D01*
X116500Y118519D01*
Y116281D01*
X117600Y115181D01*
Y106335D01*
X118635Y105300D01*
X123281D01*
X125100Y103481D01*
Y95300D01*
X131400Y89000D01*
X141300D01*
G01X139050Y109100D02*
X133900D01*
X133000Y110000D01*
G01X121900Y110500D02*
X126350Y114950D01*
Y117200D01*
G01X140950D02*
X132850D01*
G01D02*
Y122585D01*
X127335Y128100D01*
G01X131350Y145000D02*
X146157D01*
X147257Y146100D01*
G01X136350Y155000D02*
X136450Y154900D01*
X140900D01*
X141800Y154000D01*
X147657D01*
G01X119500Y168800D02*
Y192200D01*
G01X138400Y187700D02*
Y200200D01*
X136800Y201800D01*
G01X165400Y148000D02*
Y154587D01*
X154487Y165500D01*
X152137D01*
X149000Y168637D01*
Y174219D01*
X148400Y174819D01*
Y177082D01*
X145200Y180282D01*
Y184500D01*
X143119Y186581D01*
X141100D01*
X139519Y185000D01*
X137281D01*
X135700Y186581D01*
Y194000D01*
X127900Y201800D01*
X126800D01*
G01X159400Y138200D02*
Y143000D01*
X161200Y144800D01*
Y156524D01*
X158069Y159655D01*
X157845D01*
X153600Y163900D01*
X151474D01*
X147400Y167974D01*
Y173556D01*
X146800Y174156D01*
Y176419D01*
X139819Y183400D01*
X136618D01*
X122600Y197418D01*
Y200200D01*
X121000Y201800D01*
X116800D01*
G01X144100Y175300D02*
X142400Y177000D01*
X138450D01*
X137650Y176200D01*
Y175600D01*
G01X149600Y31850D02*
X164816D01*
X166033Y30633D01*
G01D02*
X173950Y22716D01*
Y21600D01*
G01X166033Y30633D02*
X166800Y31400D01*
Y47500D01*
X156800Y57500D01*
X149700D01*
G01X160000Y18800D02*
X163450D01*
X166250Y21600D01*
G01X153450Y46900D02*
Y46002D01*
X145900Y38452D01*
Y26502D01*
G01D02*
X148052Y24350D01*
X149600D01*
G01X141300Y67800D02*
Y89000D01*
G01X188400Y195100D02*
X181600Y188300D01*
Y186626D01*
X180000Y185026D01*
Y152500D01*
X174100Y146600D01*
Y144600D01*
X166900Y137400D01*
Y135092D01*
X164879Y133071D01*
Y115909D01*
X163270Y114300D01*
X159052D01*
X157500Y112748D01*
Y93625D01*
X161300Y89825D01*
Y67800D01*
G01Y97800D02*
X164900Y101400D01*
Y103300D01*
X161650Y106550D01*
Y110700D01*
G01X141300Y97800D02*
Y104850D01*
X142750Y106300D01*
X143416D01*
X145550Y108434D01*
Y109100D01*
G01X174200Y131700D02*
X175300Y130600D01*
Y116281D01*
X173400Y114381D01*
Y111174D01*
X176800Y107774D01*
Y90300D01*
X167300Y80800D01*
Y74700D01*
G01X180000Y201800D02*
Y187289D01*
X178400Y185689D01*
Y153163D01*
X172500Y147263D01*
Y145263D01*
X165300Y138063D01*
Y135755D01*
X155100Y125555D01*
Y86700D01*
X147400Y79000D01*
G01X145550Y109100D02*
Y112984D01*
X148650Y116084D01*
Y117200D01*
G01X144265Y128100D02*
X146950Y125415D01*
Y118900D01*
X148650Y117200D01*
G01X161700Y128200D02*
Y119683D01*
X161317Y119300D01*
G01X154743Y154000D02*
Y146500D01*
X154343Y146100D01*
G01X154500Y146000D02*
X154443D01*
X154343Y146100D01*
G01X167500Y173100D02*
X163300Y177300D01*
X152700D01*
X150000Y180000D01*
G01X155700Y193500D02*
Y200700D01*
X156800Y201800D01*
G01X183500Y8600D02*
Y65600D01*
X181300Y67800D01*
G01X191300D02*
Y10800D01*
X193500Y8600D01*
G01X230000Y201800D02*
X211700Y183500D01*
X197300D01*
X186400Y172600D01*
Y155152D01*
X186401Y155151D01*
Y149849D01*
X180500Y143948D01*
Y118600D01*
X201300Y97800D01*
G01X210000Y201800D02*
X204800Y196600D01*
X196100D01*
X183200Y183700D01*
Y153826D01*
X183201Y153825D01*
Y151175D01*
X177300Y145274D01*
Y142500D01*
X175000Y140200D01*
Y134719D01*
X176900Y132819D01*
Y115618D01*
X175000Y113718D01*
Y111837D01*
X181300Y105537D01*
Y97800D01*
G01X191300D02*
X178600Y110500D01*
Y136100D01*
X178900Y136400D01*
Y144611D01*
X184801Y150512D01*
Y154488D01*
X184800Y154489D01*
Y175600D01*
X197900Y188700D01*
X206900D01*
X220000Y201800D01*
G01X206750Y108300D02*
X197900D01*
G01X172600Y117400D02*
Y129481D01*
X171500Y130581D01*
Y132819D01*
X172600Y133919D01*
Y140837D01*
X175700Y143937D01*
Y145937D01*
X181600Y151837D01*
Y184363D01*
X199037Y201800D01*
X200000D01*
G01X204300Y179200D02*
X213800Y169700D01*
Y130763D01*
X195200Y112163D01*
Y107181D01*
X196781Y105600D01*
X198862D01*
X199062Y105800D01*
X203002D01*
X204352Y104450D01*
X204868D01*
X207500Y101818D01*
Y93625D01*
X220800Y80325D01*
Y68300D01*
X221300Y67800D01*
G01X205900Y85200D02*
X203990Y87110D01*
Y92515D01*
X205100Y93625D01*
Y101955D01*
X204205Y102850D01*
X203689D01*
X202339Y104200D01*
X199725D01*
X199525Y104000D01*
X196118D01*
X193600Y106518D01*
Y107763D01*
X182750Y118613D01*
Y138350D01*
X192400Y148000D01*
G01X194575Y125725D02*
Y125927D01*
X195850Y127202D01*
Y130100D01*
G01X206100Y147825D02*
X203575D01*
X196400Y155000D01*
G01X203500Y8600D02*
Y65600D01*
X201300Y67800D01*
G01X211300D02*
Y10800D01*
X213500Y8600D01*
G01X223500D02*
Y65600D01*
X221300Y67800D01*
G01X231300D02*
Y55748D01*
X229500Y53948D01*
Y12600D01*
X233500Y8600D01*
G01X229450Y108300D02*
Y99650D01*
X231300Y97800D01*
G01X224100Y150600D02*
Y147681D01*
X217399Y140980D01*
Y111599D01*
X218650Y110348D01*
Y100450D01*
X221300Y97800D01*
G01X214450Y108300D02*
X216301Y106449D01*
Y101382D01*
X212719Y97800D01*
X211300D01*
G01X240000Y201800D02*
X249700Y192100D01*
X252600D01*
X253900Y190800D01*
Y175002D01*
X252748Y173850D01*
X250752D01*
X249350Y172448D01*
Y171350D01*
X244500Y166500D01*
Y157163D01*
X244337Y157000D01*
X244318D01*
X241800Y154482D01*
Y154463D01*
X238300Y150963D01*
Y94100D01*
X233100Y88900D01*
X218100D01*
X211300Y95700D01*
Y97800D01*
G01X206283Y130200D02*
Y131183D01*
X211100Y136000D01*
G01X226300Y137700D02*
Y122425D01*
X224625Y120750D01*
X223584D01*
X221675Y118841D01*
Y117800D01*
G01X229325D02*
Y108425D01*
X229450Y108300D01*
G01X241900Y167700D02*
Y159041D01*
X229325Y146466D01*
Y117800D01*
G01X226300Y137700D02*
Y146700D01*
X228300Y148700D01*
Y175800D01*
X232500Y180000D01*
G01X206100Y140175D02*
X205933Y140008D01*
Y136567D01*
X206500Y136000D01*
X211100D01*
G01X218600Y146000D02*
Y156100D01*
X222500Y160000D01*
G01X224124Y190624D02*
Y181624D01*
X222500Y180000D01*
G01X249200Y159600D02*
X245000Y155400D01*
X244981D01*
X243400Y153819D01*
Y153800D01*
X240100Y150500D01*
Y92700D01*
X231300Y83900D01*
Y67800D01*
G01X233100Y51350D02*
X243850D01*
X244900Y52400D01*
G01X245400Y78491D02*
Y52900D01*
G01X244900Y52400D02*
X245400Y52900D01*
G01X261200Y90500D02*
Y89700D01*
X260400Y88900D01*
X245200D01*
X244400Y89700D01*
Y92500D01*
G01X245400Y78491D02*
X241700Y82191D01*
Y93619D01*
X250081Y102000D01*
X252700D01*
G01X262700Y112000D02*
X257900Y116800D01*
Y126400D01*
X257100Y127200D01*
X251300D01*
X245400Y133100D01*
Y146100D01*
X248600Y149300D01*
X252863D01*
X255263Y151700D01*
X262200D01*
X263900Y153400D01*
Y183300D01*
G01X253500Y156600D02*
X254650D01*
X258900Y160850D01*
G01X246100Y152700D02*
X250300Y156900D01*
X250319D01*
X251900Y158481D01*
Y162666D01*
X257784Y168550D01*
X258900D01*
G01X250350Y177700D02*
Y185693D01*
X250143Y185900D01*
G01X242650Y177700D02*
X234800D01*
X232500Y180000D01*
G01X258900Y168550D02*
Y192900D01*
X250000Y201800D01*
G54D35*
X127583Y33300D03*
X120417D03*
X138583Y52500D03*
X131417D03*
X168483Y119300D03*
X161317D03*
X199117Y130200D03*
X206283D03*
G54D26*
X61546Y132500D03*
X53454D03*
G54D17*
X50000Y10000D03*
X60000Y200000D03*
X260000Y30000D03*
Y140000D03*
G54D36*
X140000Y24350D03*
Y31850D03*
X149600D03*
Y28100D03*
Y24350D03*
G54D27*
X71535Y110000D03*
X88465D03*
X127335Y128100D03*
X144265D03*
G54D18*
X48850Y37600D03*
X70150D03*
G54D28*
X60996Y144200D03*
X53004D03*
G54D19*
X33300Y37700D03*
G54D37*
X157400Y9700D03*
X167500Y173100D03*
X166800Y201800D03*
X183500Y8600D03*
X222500Y180000D03*
X252700Y122000D03*
X250000Y201800D03*
G54D38*
X147657Y154000D03*
X154743D03*
X147257Y146100D03*
X154343D03*
X243057Y185900D03*
X250143D03*
G54D29*
X73800Y140576D03*
Y143726D03*
Y146876D03*
Y150025D03*
Y153175D03*
Y156324D03*
Y159474D03*
Y162624D03*
X107200Y159474D03*
Y156324D03*
Y153175D03*
Y150025D03*
Y146876D03*
Y143726D03*
Y140576D03*
Y162624D03*
G54D39*
X221675Y117800D03*
X229325D03*
M02*
